<?xml version="1.0" encoding="utf-8"?>
<!-- Generator: Adobe Illustrator 24.1.3, SVG Export Plug-In . SVG Version: 6.00 Build 0)  -->
<svg version="1.1" id="Livello_1" xmlns="http://www.w3.org/2000/svg" xmlns:xlink="http://www.w3.org/1999/xlink" x="0px" y="0px"
	 viewBox="0 0 100 100" style="enable-background:new 0 0 100 100;" xml:space="preserve">
<g>
	<path d="M36,25.3c9.5,0,14,6,14,13.7c0,6.8-3.7,14.3-14.2,14.3H19.2v20.6h-6.3V25.3C12.9,25.3,36,25.3,36,25.3z M34.9,47.5
		c5.1,0,8.7-2.8,8.7-8.6c0-5.7-3.7-8-8.6-8H19.2v16.7C19.2,47.5,34.9,47.5,34.9,47.5z"/>
	<path d="M64,31.1v14.3h23v5.7H64V74h-6.5V25.4h31.3v5.8C88.8,31.1,64,31.1,64,31.1z"/>
</g>
</svg>
