<?xml version="1.0" encoding="utf-8"?>
<!-- Generator: Adobe Illustrator 25.4.1, SVG Export Plug-In . SVG Version: 6.00 Build 0)  -->
<svg version="1.1" id="Livello_1" xmlns="http://www.w3.org/2000/svg" xmlns:xlink="http://www.w3.org/1999/xlink" x="0px" y="0px"
	 viewBox="0 0 128 128" style="enable-background:new 0 0 128 128;" xml:space="preserve">
<style type="text/css">
	.st0{fill:#E8E8E5;}
</style>
<g>
	<path class="st0" d="M102.6,59.4c-1.8,0-3.2,1.1-3.2,3.3h6.4C105.8,60.5,104.4,59.4,102.6,59.4z"/>
	<path class="st0" d="M42.2,66.7c0,1.1,0.9,1.8,2.4,1.8c2.3,0,3.5-1.5,3.5-2.4v-1.8h-0.7C44.6,64.3,42.2,64.8,42.2,66.7z"/>
	<path class="st0" d="M25.8,59.4c-2.1,0-3.5,1.6-3.5,4v1.3c0,2.2,1.4,3.7,3.6,3.7c2.1,0,3.5-1.8,3.5-4.5
		C29.3,61.2,27.9,59.4,25.8,59.4z"/>
	<path class="st0" d="M64,0C28.7,0,0,28.7,0,64c0,35.3,28.7,64,64,64s64-28.7,64-64C128,28.7,99.3,0,64,0z M26.4,70.9
		c-1.6,0-3.3-0.8-4.2-2v7.6h-2.9V57.4h2.9v1.7c1-1.3,2.6-2.1,4.2-2.1c3.5,0,5.9,2.8,5.9,6.9C32.2,68.1,29.9,70.9,26.4,70.9z
		 M37.3,70.5h-2.9v-19h2.9V70.5z M51.1,67.3v1.6v1.6h-2.8v-1.8h0c-0.8,1.3-2.4,2.1-4.4,2.1c-3.3,0-4.5-2-4.5-3.9
		c0-1.2,0.5-2.2,1.5-3c1.1-0.8,2.9-1.3,6.6-1.3h0.7v-0.7c0-1.5-0.7-2.4-2.6-2.4c-2,0-2.7,1-2.7,1.9H40c0-2,1.2-4.3,5.6-4.3
		c3.4,0,5.5,1.3,5.5,5.7V67.3z M59.9,69.4l-2.4,7h-2.9l2.1-6l-5-13.1h3.1l2.8,8.6l0.4,1.2h0l0.4-1.2l2.8-8.6h3.1L59.9,69.4z
		 M94,70.5h-2.9v-7.4c0-3-1.3-3.7-2.6-3.7c-2.1,0-3.5,1.6-3.5,4.2v6.9H82v-7.4c0-3-1.3-3.7-2.6-3.7c-2.1,0-3.5,1.6-3.5,4.2v6.9h-2.9
		V57.4h2.9v2c1-1.7,2.6-2.4,4.4-2.4c2,0,3.5,0.9,4.2,2.6c1.4-2,3.2-2.6,4.9-2.6c3,0,4.7,1.8,4.7,5.6V70.5z M102.7,70.9
		c-4.1,0-6.3-3-6.3-7c0-4,2.3-6.9,6.2-6.9c3.5,0,6.1,2.3,6.1,6v1.8l-9.3,0c0.2,2.2,1.4,3.6,3.4,3.6c1.7,0,2.8-1,3-2h2.9
		C108.5,68.4,106.4,70.9,102.7,70.9z"/>
</g>
</svg>
