<?xml version="1.0" standalone="no"?>
<!DOCTYPE svg PUBLIC "-//W3C//DTD SVG 20010904//EN"
 "http://www.w3.org/TR/2001/REC-SVG-20010904/DTD/svg10.dtd">
<svg version="1.0" xmlns="http://www.w3.org/2000/svg"
 width="2000.000000pt" height="2000.000000pt" viewBox="0 0 2000.000000 2000.000000"
 preserveAspectRatio="xMidYMid meet">
<metadata>
Created by potrace 1.11, written by Peter Selinger 2001-2013
</metadata>
<g transform="translate(0.000000,2000.000000) scale(0.100000,-0.100000)"
fill="#fff" stroke="none">
<path d="M0 10000 l0 -10000 10000 0 10000 0 0 10000 0 10000 -10000 0 -10000
0 0 -10000z m7705 4917 c262 -40 441 -82 625 -146 383 -132 668 -307 935 -576
394 -394 623 -896 712 -1555 22 -168 25 -654 5 -825 -74 -613 -275 -1128 -599
-1530 -102 -127 -300 -319 -423 -411 -311 -234 -706 -401 -1130 -478 -285 -52
-187 -50 -2157 -53 l-1833 -4 0 -2064 0 -2065 -630 0 -630 0 0 4865 0 4865
2508 -3 c2298 -3 2516 -4 2617 -20z m10055 -567 l0 -580 -2475 0 -2475 0 0
-1430 0 -1430 2295 0 2295 0 0 -570 0 -570 -2295 0 -2295 0 0 -2290 0 -2290
-650 0 -650 0 0 4870 0 4870 3125 0 3125 0 0 -580z"/>
<path d="M3840 12160 l0 -1660 1713 2 1712 3 125 24 c184 34 338 84 485 155
305 149 507 348 656 646 241 481 249 1242 19 1701 -211 418 -568 658 -1135
762 l-120 21 -1727 4 -1728 3 0 -1661z"/>
</g>
</svg>
