<?xml version="1.0" encoding="utf-8"?>
<!-- Generator: Adobe Illustrator 26.0.0, SVG Export Plug-In . SVG Version: 6.00 Build 0)  -->
<svg version="1.1" id="layer" xmlns="http://www.w3.org/2000/svg" xmlns:xlink="http://www.w3.org/1999/xlink" x="0px" y="0px"
	 viewBox="0 0 652 210" style="enable-background:new 0 0 652 210;" xml:space="preserve">
<polygon points="620.5,53 620.5,23.2 518.2,23.2 518.2,178.7 620.5,178.7 620.5,148.9 549.6,148.9 549.6,116.5 610.4,116.5 
	610.4,85.5 549.6,85.5 549.6,53 "/>
<path d="M103.3,126.9h-46l23-73.9L103.3,126.9z M140.2,178.7v-29.5L100.8,23.1H59.9L20.5,149.2v29.5h30.2v-22.3H110v22.3H140.2z"/>
<polygon points="252.6,148.9 188.6,148.9 252.6,53 252.6,23.2 150,23.2 150,53 214.1,53 150,148.9 150,178.8 252.6,178.8 "/>
<g>
	<path d="M478.1,77c0,15.1-9.4,25.7-22.9,25.7h-31.6V52.5h31.1C468.8,52.5,478.1,62.3,478.1,77 M509.2,76.5
		c0-36.4-17.8-53.4-55.9-53.4h-61v155.6h31.5V132h31.1l23.5,46.7h29.9V164l-20.5-42.5l-0.1-0.1c1.8-0.9,4.1-2.8,4.1-2.8
		C503.7,109,509.2,95.6,509.2,76.5"/>
	<path d="M380.4,129.6c0.1-1.8,0.1-3.6,0.1-5.5v-101h-31.7v100.6c0,18.3-7.7,25.4-27.3,25.4c-19.6,0-27.3-7.1-27.3-25.4V23.2h-31.7
		v101c0,7.8,0.6,14.7,2,20.7c5.5,24.8,22.9,35,57,35l0,0C362,179.8,378.9,165.7,380.4,129.6"/>
</g>
</svg>
