<?xml version="1.0" encoding="utf-8"?>
<!-- Generator: Adobe Illustrator 16.0.0, SVG Export Plug-In . SVG Version: 6.00 Build 0)  -->
<!DOCTYPE svg PUBLIC "-//W3C//DTD SVG 1.1//EN" "http://www.w3.org/Graphics/SVG/1.1/DTD/svg11.dtd">
<svg version="1.1" id="Layer_1" xmlns="http://www.w3.org/2000/svg" xmlns:xlink="http://www.w3.org/1999/xlink" x="0px" y="0px"
	 width="292.5px" height="132.281px" viewBox="0 0 292.5 132.281" enable-background="new 0 0 292.5 132.281" xml:space="preserve">
<path d="M182.179,122.18c-1.27-0.195-2.832,0.585-2.832,2.782c0,0.293,0.196,0.488,0.488,0.488c0.293,0,0.488-0.195,0.488-0.488
	c0-2.245,2.197-2.245,3.905-1.025c1.025,0.732,3.71,2.001,7.176,2.001c5.662,0,9.959-3.563,9.959-8.884
	c0-5.223-2.637-7.42-10.643-10.788c-6.004-2.538-7.712-4.295-7.712-7.762c0-3.808,2.782-6.297,5.467-6.248
	c4.247,0,7.908,2.393,9.616,8.299c0.049,0.244,0.244,0.39,0.488,0.39c0.293,0,0.488-0.195,0.488-0.487c0-0.049,0-0.146-0.049-0.244
	c-0.391-1.709-1.415-3.808-2.538-5.175c1.415,0.146,2.587-0.586,2.587-2.782c0-0.293-0.195-0.488-0.488-0.488
	s-0.488,0.195-0.488,0.488c0,2.246-1.708,2.344-3.319,1.025c-0.977-0.781-2.685-2.002-6.297-2.002c-5.419,0-9.372,3.32-9.372,8.348
	c0,4.784,2.782,7.811,10.642,11.13c6.102,2.588,7.713,4.198,7.713,7.712c0,3.418-2.588,6.493-6.054,6.493
	c-4.881,0-9.372-2.392-11.081-8.299c-0.048-0.243-0.244-0.391-0.488-0.391c-0.292,0-0.488,0.195-0.488,0.488
	c0,0.049,0,0.146,0.05,0.244C179.786,118.713,180.567,120.52,182.179,122.18 M196.091,123.986c1.464-1.465,2.343-3.515,2.343-5.517
	c0-4.002-1.758-5.857-8.201-8.591c-7.565-3.222-10.202-5.857-10.202-10.251c0-3.026,1.66-5.32,4.198-6.492
	c-1.317,1.269-2.196,3.173-2.196,5.369c0,4.003,1.952,6.004,8.2,8.641c7.664,3.222,10.202,4.931,10.202,9.909
	C200.435,120.422,198.727,122.765,196.091,123.986 M189.989,108.952c6.492,2.781,8.298,4.344,8.835,7.419
	c0.049,0.342,0.195,0.488,0.488,0.488s0.488-0.195,0.488-0.537c0-0.049,0-0.146-0.049-0.39c-0.439-3.32-2.588-5.028-9.274-7.859
	c-5.37-2.295-8.25-4.247-8.787-7.47c-0.049-0.292-0.195-0.487-0.488-0.487s-0.488,0.195-0.488,0.487c0,0.099,0,0.245,0.049,0.392
	C181.397,104.314,184.57,106.657,189.989,108.952 M150.303,121.497c0.928-1.514,1.465-3.369,1.465-5.564v-14.645
	c0-2.197-0.537-4.052-1.465-5.565c1.367-1.854,3.466-2.978,5.81-2.978h1.854c10.495,0,12.399,10.495,12.399,15.865
	c0,5.369-1.904,15.864-12.399,15.864h-1.854C153.769,124.474,151.67,123.351,150.303,121.497 M143.323,124.474
	c-0.293,0-0.488,0.195-0.488,0.488s0.195,0.488,0.488,0.488c2.294,0,4.344-0.928,5.907-2.538v1.806c0,0.293,0.195,0.488,0.487,0.488
	c0.293,0,0.488-0.195,0.488-0.488v-1.806c1.562,1.61,3.612,2.538,5.907,2.538h1.854c11.13,0,16.694-6.151,16.694-16.841
	c0-10.69-5.564-16.842-16.694-16.842h-1.854c-2.295,0-4.345,0.928-5.907,2.539V92.5c0-0.293-0.195-0.488-0.488-0.488
	c-0.292,0-0.487,0.195-0.487,0.488v1.807c-1.562-1.611-3.612-2.539-5.907-2.539c-0.293,0-0.488,0.195-0.488,0.488
	s0.195,0.488,0.488,0.488c2.343,0,4.442,1.123,5.809,2.978c-0.928,1.514-1.465,3.368-1.465,5.565v14.645
	c0,2.195,0.537,4.051,1.465,5.564C147.765,123.351,145.666,124.474,143.323,124.474 M148.644,101.288
	c0-1.318,0.195-2.441,0.586-3.516v21.674c-0.391-1.073-0.586-2.196-0.586-3.514V101.288z M150.791,101.288v14.645
	c0,1.317-0.195,2.44-0.586,3.514V97.772C150.596,98.846,150.791,99.969,150.791,101.288 M165.338,123.205
	c4.833-3.515,6.004-10.397,6.004-14.595c0-4.149-1.171-11.082-5.955-14.596c5.517,2.196,8.299,7.322,8.299,14.596
	C173.686,115.932,170.903,121.008,165.338,123.205 M172.025,108.61c0,3.173-0.293,5.125-1.659,8.347
	c-0.049,0.098-0.099,0.244-0.099,0.342c0,0.293,0.196,0.488,0.488,0.488c0.244,0,0.391-0.098,0.488-0.391
	c1.367-3.271,1.758-5.419,1.758-8.786c0-3.368-0.391-5.517-1.758-8.787c-0.098-0.293-0.244-0.391-0.488-0.391
	c-0.292,0-0.488,0.195-0.488,0.488c0,0.098,0.05,0.244,0.099,0.342C171.732,103.484,172.025,105.436,172.025,108.61
	 M111.643,124.474c-0.293,0-0.488,0.195-0.488,0.488s0.195,0.488,0.488,0.488c2.294,0,4.344-0.928,5.906-2.538v1.806
	c0,0.293,0.195,0.488,0.488,0.488c0.292,0,0.488-0.195,0.488-0.488v-1.806c1.562,1.61,3.612,2.538,5.906,2.538
	c0.293,0,0.488-0.195,0.488-0.488s-0.195-0.488-0.488-0.488c-2.343,0-4.442-1.123-5.809-2.978c0.927-1.514,1.464-3.369,1.464-5.564
	v-14.645c0-2.197-0.537-4.052-1.464-5.565c1.367-1.854,3.465-2.978,5.809-2.978h2.587c2.88,0.146,6.394,3.417,6.394,7.811
	c0,4.54-3.661,7.811-6.589,7.811h-5.174c-0.293,0-0.488,0.194-0.488,0.487c0,0.099,0.049,0.195,0.098,0.293l5.272,7.42
	c4.442,6.151,8.933,8.885,14.498,8.885c0.293,0,0.489-0.195,0.489-0.488s-0.196-0.488-0.489-0.488c-1.416,0-2.733-0.195-4.051-0.586
	l-10.397-14.547h1.025c5.711,0,10.007-3.319,10.007-8.786c0-5.468-4.296-8.787-10.007-8.787h-3.173
	c-2.294,0-4.345,0.928-5.906,2.539V92.5c0-0.293-0.196-0.488-0.488-0.488c-0.293,0-0.488,0.195-0.488,0.488v1.807
	c-1.562-1.611-3.612-2.539-5.906-2.539c-0.293,0-0.488,0.195-0.488,0.488s0.195,0.488,0.488,0.488c2.343,0,4.442,1.123,5.809,2.978
	c-0.927,1.514-1.464,3.368-1.464,5.565v14.645c0,2.195,0.537,4.051,1.464,5.564C116.084,123.351,113.985,124.474,111.643,124.474
	 M116.963,101.288c0-1.318,0.196-2.441,0.586-3.516v21.674c-0.39-1.073-0.586-2.196-0.586-3.514V101.288z M119.111,101.288v14.645
	c0,1.317-0.195,2.44-0.585,3.514V97.772C118.916,98.846,119.111,99.969,119.111,101.288 M122.528,109.341h2.928l9.861,13.912
	c-2.929-1.317-5.565-3.71-8.054-7.273L122.528,109.341z M130.534,108.024c2.099-1.465,3.856-4.149,3.856-7.469
	c0-3.271-1.758-6.005-3.856-7.469c3.563,0.928,6.102,3.563,6.102,7.469S134.097,107.096,130.534,108.024 M130.973,118.177
	l-5.663-7.908c-0.098-0.146-0.244-0.244-0.439-0.244c-0.293,0-0.488,0.195-0.488,0.488c0,0.098,0.049,0.244,0.195,0.439l5.613,7.811
	c0.098,0.146,0.293,0.244,0.44,0.244c0.292,0,0.488-0.195,0.488-0.488C131.12,118.421,131.07,118.324,130.973,118.177
	 M135.025,100.555c0,1.025-0.196,1.952-0.489,2.587c-0.049,0.098-0.098,0.244-0.098,0.342c0,0.293,0.196,0.488,0.488,0.488
	c0.195,0,0.342-0.049,0.439-0.244c0.439-1.025,0.635-2.147,0.635-3.173s-0.195-2.148-0.635-3.173
	c-0.098-0.195-0.244-0.244-0.439-0.244c-0.292,0-0.488,0.195-0.488,0.487c0,0.099,0.049,0.244,0.098,0.343
	C134.829,98.602,135.025,99.53,135.025,100.555 M92.409,96.601l10.105,24.847c-0.878-0.879-1.611-1.952-2.148-3.32l-8.884-21.771
	l1.318-3.271l10.349,25.627c0.342,0.929,0.586,1.904,0.391,2.734l-10.3-25.433c-0.049-0.146-0.195-0.244-0.439-0.244
	c-0.292,0-0.488,0.195-0.488,0.488C92.312,96.357,92.361,96.503,92.409,96.601 M87.186,115.785h9.421
	c0.293,0,0.488-0.194,0.488-0.487s-0.195-0.488-0.488-0.488H87.04c-0.927,0-1.903-0.146-2.831-0.537l6.736-16.597l8.543,20.94
	c0.732,1.855,1.904,3.271,3.271,4.345c-0.878,0.879-2.587,1.514-5.418,1.514c-0.293,0-0.488,0.195-0.488,0.488
	s0.195,0.488,0.488,0.488c3.026,0,4.979-0.732,6.053-1.758l0.489,1.172c0.097,0.243,0.244,0.342,0.488,0.342
	c0.293,0,0.488-0.195,0.488-0.488c0-0.049,0-0.146-0.098-0.342l-0.146-0.293c1.903,0.928,3.954,1.367,6.004,1.367
	c0.292,0,0.488-0.195,0.488-0.488s-0.195-0.488-0.488-0.488c-2.197,0-4.54-0.488-6.493-1.709c0.683-1.317,0.537-2.928,0-4.296
	L93.288,91.67c-0.098-0.243-0.244-0.391-0.488-0.391s-0.391,0.147-0.488,0.391l-8.981,22.162c-1.025-0.537-1.904-1.317-2.49-2.344
	c-0.195-0.292-0.391-0.39-0.635-0.342c-0.292,0.05-0.488,0.342-0.292,0.685c0.683,1.22,1.806,2.196,3.075,2.88l-2.929,7.225
	c-0.732,1.854-1.708,2.538-5.076,2.538c-0.293,0-0.488,0.195-0.488,0.488s0.195,0.488,0.488,0.488c2.636,0,4.051-0.343,4.979-1.416
	c0.586,0.83,1.953,1.416,4.687,1.416c0.293,0,0.488-0.195,0.488-0.488s-0.195-0.488-0.488-0.488c-3.222,0-4.296-0.635-3.612-2.294
	l2.831-7.079C84.941,115.541,86.112,115.785,87.186,115.785 M58.483,96.015c0.781,0.83,1.562,1.953,1.953,3.075l7.908,21.625
	l-1.074,3.417l-9.617-25.628c-0.391-0.977-0.634-2.001-0.391-2.929l9.324,25.091c0.098,0.244,0.244,0.342,0.488,0.342
	c0.293,0,0.488-0.195,0.488-0.488c0-0.098-0.049-0.194-0.098-0.342L58.483,96.015z M40.764,95.82c0.83,0.879,1.66,2.05,2.099,3.271
	l8.006,21.479l-1.171,3.563l-9.617-25.628c-0.341-0.879-0.537-1.854-0.391-2.733l9.421,24.847c0.098,0.244,0.244,0.391,0.488,0.391
	c0.292,0,0.488-0.195,0.488-0.488c0-0.098-0.049-0.293-0.098-0.391L40.764,95.82z M66.782,125.548
	c0.098,0.244,0.244,0.39,0.488,0.39c0.244,0,0.391-0.146,0.488-0.39l9.714-30.266c0.537-1.854,1.708-2.538,5.077-2.538
	c0.293,0,0.488-0.195,0.488-0.488s-0.195-0.488-0.488-0.488c-2.782,0-4.247,0.342-5.223,1.465c-0.537-0.879-1.904-1.465-4.686-1.465
	c-0.293,0-0.488,0.195-0.488,0.488s0.195,0.488,0.488,0.488c3.417,0,4.296,0.878,3.856,2.294l-7.664,24.164l-7.517-20.601
	c-0.635-1.708-1.953-3.27-3.32-4.345c0.83-0.878,2.392-1.513,5.077-1.513c0.293,0,0.488-0.195,0.488-0.488s-0.195-0.488-0.488-0.488
	c-2.782,0-4.491,0.635-5.565,1.562l-0.341-0.879c-0.146-0.391-0.293-0.439-0.537-0.439c-0.293,0-0.488,0.195-0.488,0.488
	c0,0.098,0.049,0.244,0.098,0.342l0.195,0.439c-1.904-1.074-4.149-1.514-6.248-1.514c-0.293,0-0.488,0.195-0.488,0.488
	s0.195,0.488,0.488,0.488c2.196,0,4.491,0.488,6.443,1.708c-0.684,1.367-0.488,2.979,0.049,4.296l0.732,1.904l-6.054,18.403
	l-7.615-20.454c-0.537-1.513-1.903-3.27-3.271-4.295c0.879-0.928,2.538-1.562,5.418-1.562c0.293,0,0.488-0.195,0.488-0.488
	s-0.195-0.488-0.488-0.488c-3.075,0-4.93,0.684-6.004,1.758l-0.439-1.172c-0.097-0.244-0.244-0.342-0.488-0.342
	c-0.293,0-0.488,0.195-0.488,0.488c0,0.049,0,0.146,0.098,0.342l0.146,0.342c-1.806-0.977-4.003-1.416-6.102-1.416
	c-0.293,0-0.488,0.195-0.488,0.488s0.195,0.488,0.488,0.488c2.196,0,4.54,0.488,6.492,1.758c-0.684,1.317-0.537,2.929,0,4.246
	l10.104,26.8c0.098,0.244,0.244,0.39,0.488,0.39s0.391-0.146,0.488-0.39l7.761-23.432L66.782,125.548z M24.021,96.601l10.104,24.847
	c-0.878-0.879-1.611-1.952-2.148-3.32l-8.884-21.771l1.318-3.271l10.349,25.627c0.341,0.929,0.585,1.904,0.391,2.734l-10.3-25.433
	c-0.049-0.146-0.195-0.244-0.439-0.244c-0.293,0-0.488,0.195-0.488,0.488C23.923,96.357,23.972,96.503,24.021,96.601
	 M18.797,115.785h9.421c0.292,0,0.488-0.194,0.488-0.487s-0.196-0.488-0.488-0.488h-9.568c-0.927,0-1.904-0.146-2.831-0.537
	l6.736-16.597l8.542,20.94c0.732,1.855,1.904,3.271,3.271,4.345c-0.879,0.879-2.587,1.514-5.418,1.514
	c-0.293,0-0.488,0.195-0.488,0.488s0.195,0.488,0.488,0.488c3.026,0,4.979-0.732,6.053-1.758l0.488,1.172
	c0.098,0.243,0.244,0.342,0.488,0.342c0.293,0,0.488-0.195,0.488-0.488c0-0.049,0-0.146-0.098-0.342l-0.146-0.293
	c1.904,0.928,3.954,1.367,6.004,1.367c0.292,0,0.488-0.195,0.488-0.488s-0.195-0.488-0.488-0.488c-2.197,0-4.54-0.488-6.493-1.709
	c0.684-1.317,0.537-2.928,0-4.296L24.899,91.67c-0.097-0.243-0.244-0.391-0.488-0.391s-0.391,0.147-0.488,0.391l-8.982,22.162
	c-1.025-0.537-1.904-1.317-2.489-2.344c-0.195-0.292-0.391-0.39-0.635-0.342c-0.293,0.05-0.488,0.342-0.293,0.685
	c0.684,1.22,1.806,2.196,3.076,2.88l-2.929,7.225c-0.732,1.854-1.708,2.538-5.077,2.538c-0.293,0-0.488,0.195-0.488,0.488
	s0.195,0.488,0.488,0.488c2.636,0,4.052-0.343,4.979-1.416c0.585,0.83,1.953,1.416,4.686,1.416c0.293,0,0.488-0.195,0.488-0.488
	s-0.195-0.488-0.488-0.488c-3.222,0-4.295-0.635-3.612-2.294l2.832-7.079C16.552,115.541,17.724,115.785,18.797,115.785"/>
<path d="M172.571,77.533c0.146,0.195,0.243,0.244,0.439,0.244c0.293,0,0.488-0.195,0.488-0.488c0-0.146-0.049-0.244-0.146-0.391
	l-17.524-23.919c-0.098-0.146-0.244-0.195-0.391-0.195c-0.293,0-0.488,0.195-0.488,0.488c0,0.098,0.049,0.195,0.146,0.342
	L172.571,77.533z M174.572,81.487l-20.258-27.824l-0.635-0.83c0.342-0.537,0.928-0.781,1.416-0.781c0.684,0,1.172,0.342,1.757,1.123
	l17.72,24.261V81.487z M152.362,80.803c0.732,1.562,2.343,2.245,4.832,2.245c0.293,0,0.489-0.195,0.489-0.487
	c0-0.293-0.196-0.488-0.489-0.488c-2.929,0-4.345-1.123-4.345-3.905V55.713c0-0.781,0.099-1.464,0.293-2.002l0.439,0.586
	l21.039,28.995c0.098,0.146,0.245,0.244,0.439,0.244c0.293,0,0.488-0.195,0.488-0.488v-28.8c0-2.783,1.416-3.905,4.345-3.905
	c0.293,0,0.488-0.195,0.488-0.488s-0.195-0.488-0.488-0.488c-2.489,0-4.101,0.683-4.833,2.246c-0.732-1.562-2.343-2.246-4.832-2.246
	c-0.293,0-0.489,0.195-0.489,0.488s0.196,0.488,0.489,0.488c2.929,0,4.344,1.123,4.344,3.905v21.478l-16.841-23.04
	c-0.635-0.878-1.611-1.611-2.733-1.611c-0.781,0-1.514,0.341-1.952,0.976c-1.514-1.708-3.174-2.685-5.517-2.685
	c-0.293,0-0.488,0.195-0.488,0.488s0.195,0.488,0.488,0.488c2.148,0,3.612,0.976,4.93,2.538c-0.341,0.732-0.585,1.66-0.585,2.832
	v22.455c0,2.782-1.416,3.905-4.345,3.905c-0.293,0-0.488,0.195-0.488,0.488c0,0.292,0.195,0.487,0.488,0.487
	C150.02,83.048,151.63,82.366,152.362,80.803 M137.962,52.54h0.195c1.221,0,2.734-0.781,2.734-2.685
	c0-0.293-0.195-0.488-0.488-0.488s-0.488,0.195-0.488,0.488c0,0.976-0.732,1.708-2.148,1.708c-0.83,0-1.22-0.195-1.708-0.536
	c-1.611-1.123-4.394-2.148-7.713-2.148c-8.201,0-14.254,6.639-14.254,17.329c0,10.739,6.053,17.329,14.889,17.329
	c5.858,0,9.03-2.245,10.3-3.954c0.098-0.146,0.146-0.293,0.146-0.438v-3.173c0-1.318,0.195-2.441,0.585-3.516v6.688
	c0,0.292,0.196,0.487,0.488,0.487c0.293,0,0.488-0.195,0.488-0.487v-6.688c0.391,1.074,0.586,2.197,0.586,3.516v6.59
	c0,0.292,0.195,0.487,0.488,0.487s0.488-0.195,0.488-0.487v-6.59c0-2.197-0.537-4.052-1.464-5.565
	c1.367-1.855,3.466-2.978,5.809-2.978c0.293,0,0.488-0.195,0.488-0.488s-0.195-0.488-0.488-0.488c-2.294,0-4.344,0.928-5.906,2.539
	v-1.807c0-0.293-0.195-0.488-0.488-0.488c-0.292,0-0.488,0.195-0.488,0.488v1.807c-1.562-1.611-3.856-2.539-6.395-2.539
	c-0.293,0-0.488,0.195-0.488,0.488s0.195,0.488,0.488,0.488c2.587,0,4.93,1.122,6.297,2.978c-0.927,1.514-1.464,3.368-1.464,5.565
	v3.124c-0.976,1.269-3.954,3.466-9.47,3.466h-0.635c-4.296,0-9.958-6.443-9.958-16.354c0-8.347,4.687-16.353,9.958-16.353
	c6.443,0,10.3,3.808,11.667,8.25c0.098,0.342,0.244,0.439,0.488,0.439c0.293,0,0.488-0.195,0.488-0.488
	c0-0.098-0.049-0.244-0.098-0.439C140.305,55.713,139.329,54.004,137.962,52.54 M123.659,81.584
	c-5.32-2.197-8.591-7.713-8.591-15.377c0-7.859,3.466-13.521,8.738-15.523c-3.662,2.88-6.395,8.934-6.395,15.523
	C117.411,73.676,120.388,78.948,123.659,81.584 M116.728,66.208c0-3.172,0.292-5.125,1.659-8.347
	c0.049-0.098,0.098-0.244,0.098-0.341c0-0.293-0.195-0.488-0.488-0.488c-0.244,0-0.391,0.146-0.488,0.391
	c-1.367,3.27-1.757,5.418-1.757,8.786s0.39,5.517,1.757,8.787c0.098,0.244,0.244,0.39,0.488,0.39c0.293,0,0.488-0.194,0.488-0.488
	c0-0.097-0.049-0.243-0.098-0.341C117.02,71.333,116.728,69.38,116.728,66.208 M103.107,58.886c0-1.318,0.196-2.441,0.586-3.515
	v21.673c-0.391-1.073-0.586-2.196-0.586-3.515V58.886z M105.256,58.886V73.53c0,1.318-0.195,2.441-0.586,3.515V55.371
	C105.061,56.445,105.256,57.567,105.256,58.886 M97.787,82.073c-0.293,0-0.488,0.195-0.488,0.488c0,0.292,0.195,0.487,0.488,0.487
	c2.294,0,4.344-0.927,5.907-2.538v1.807c0,0.293,0.195,0.488,0.488,0.488s0.488-0.195,0.488-0.488V80.51
	c1.562,1.611,3.612,2.538,5.906,2.538c0.293,0,0.488-0.195,0.488-0.487c0-0.293-0.195-0.488-0.488-0.488
	c-2.343,0-4.442-1.123-5.809-2.978c0.927-1.514,1.464-3.369,1.464-5.565V58.886c0-2.197-0.537-4.052-1.464-5.565
	c1.367-1.854,3.466-2.977,5.809-2.977c0.293,0,0.488-0.195,0.488-0.488s-0.195-0.488-0.488-0.488c-2.294,0-4.344,0.927-5.906,2.539
	v-1.806c0-0.293-0.195-0.488-0.488-0.488s-0.488,0.195-0.488,0.488v1.806c-1.562-1.611-3.613-2.539-5.907-2.539
	c-0.293,0-0.488,0.195-0.488,0.488s0.195,0.488,0.488,0.488c2.343,0,4.442,1.123,5.809,2.977c-0.927,1.514-1.464,3.369-1.464,5.565
	V73.53c0,2.196,0.537,4.052,1.464,5.565C102.229,80.95,100.13,82.073,97.787,82.073 M75.088,79.778
	c-1.269-0.195-2.831,0.586-2.831,2.783c0,0.292,0.195,0.487,0.488,0.487s0.488-0.195,0.488-0.487c0-2.246,2.197-2.246,3.905-1.025
	c1.025,0.732,3.71,2.001,7.176,2.001c5.663,0,9.958-3.563,9.958-8.884c0-5.224-2.636-7.42-10.642-10.788
	c-6.004-2.539-7.713-4.296-7.713-7.762c0-3.808,2.782-6.297,5.467-6.248c4.247,0,7.908,2.392,9.616,8.298
	c0.049,0.244,0.244,0.39,0.488,0.39c0.292,0,0.488-0.195,0.488-0.488c0-0.049,0-0.146-0.049-0.244
	c-0.391-1.708-1.416-3.807-2.539-5.174c1.416,0.146,2.587-0.586,2.587-2.783c0-0.293-0.196-0.488-0.488-0.488
	c-0.293,0-0.488,0.195-0.488,0.488c0,2.245-1.708,2.343-3.319,1.025c-0.976-0.781-2.685-2.001-6.297-2.001
	c-5.418,0-9.373,3.319-9.373,8.347c0,4.784,2.783,7.811,10.642,11.13c6.102,2.587,7.713,4.197,7.713,7.712
	c0,3.418-2.587,6.493-6.053,6.493c-4.881,0-9.373-2.393-11.081-8.299c-0.049-0.244-0.244-0.391-0.488-0.391
	c-0.293,0-0.488,0.195-0.488,0.488c0,0.049,0,0.146,0.049,0.244C72.696,76.312,73.477,78.119,75.088,79.778 M89,81.584
	c1.464-1.465,2.343-3.515,2.343-5.517c0-4.002-1.757-5.857-8.201-8.591c-7.566-3.222-10.203-5.858-10.203-10.251
	c0-3.026,1.66-5.32,4.198-6.492c-1.318,1.27-2.197,3.173-2.197,5.37c0,4.003,1.953,6.004,8.201,8.64
	c7.664,3.222,10.202,4.93,10.202,9.91C93.345,78.021,91.636,80.364,89,81.584 M82.898,66.549c6.492,2.782,8.298,4.345,8.835,7.42
	c0.048,0.342,0.195,0.488,0.488,0.488s0.488-0.195,0.488-0.537c0-0.049,0-0.146-0.049-0.391c-0.439-3.319-2.587-5.027-9.274-7.859
	c-5.37-2.294-8.25-4.247-8.787-7.469c-0.048-0.292-0.195-0.488-0.488-0.488s-0.488,0.196-0.488,0.488c0,0.098,0,0.244,0.049,0.39
	C74.307,61.913,77.48,64.255,82.898,66.549 M50.535,73.53c0,1.318-0.195,2.441-0.585,3.515V55.371
	c0.391,1.074,0.585,2.196,0.585,3.515V73.53z M49.949,51.905v-1.806c0-0.293-0.195-0.488-0.488-0.488s-0.488,0.195-0.488,0.488
	v1.806c-1.562-1.611-3.613-2.539-5.907-2.539c-0.293,0-0.488,0.195-0.488,0.488s0.195,0.488,0.488,0.488
	c2.343,0,4.442,1.123,5.809,2.977c-0.927,1.514-1.464,3.369-1.464,5.565V73.53c0,2.196,0.537,4.052,1.464,5.565
	c-1.367,1.854-3.466,2.978-5.809,2.978c-0.293,0-0.488,0.195-0.488,0.488c0,0.292,0.195,0.487,0.488,0.487
	c2.294,0,4.344-0.927,5.907-2.538v1.807c0,0.293,0.195,0.488,0.488,0.488s0.488-0.195,0.488-0.488V80.51
	c1.562,1.611,3.612,2.538,5.906,2.538h3.026c2.197,0,4.003-0.829,5.37-1.854c0.83-0.635,2.099-0.293,2.099,1.367
	c0,0.292,0.195,0.487,0.488,0.487s0.488-0.195,0.488-0.487c0-1.465-0.878-2.295-1.903-2.49c1.269-1.366,1.903-3.222,1.903-4.783
	c0-0.293-0.195-0.488-0.488-0.488s-0.488,0.195-0.488,0.488c0,3.271-3.026,6.785-7.469,6.785h-3.026
	c-2.343,0-4.442-1.123-5.809-2.978c0.928-1.514,1.464-3.369,1.464-5.565v-7.176h12.985c0.293,0,0.488-0.195,0.488-0.488
	c0-0.293-0.195-0.488-0.488-0.488H51.511v-6.492c0-2.197-0.537-4.052-1.464-5.565c1.367-1.854,3.466-2.977,5.809-2.977h3.026
	c4.442,0,7.469,3.514,7.469,6.785c0,0.293,0.195,0.488,0.488,0.488s0.488-0.195,0.488-0.488c0-1.562-0.634-3.417-1.903-4.784
	c1.025-0.195,1.903-1.025,1.903-2.489c0-0.293-0.195-0.488-0.488-0.488s-0.488,0.195-0.488,0.488c0,1.66-1.269,2.001-2.099,1.367
	c-1.367-1.025-3.172-1.855-5.37-1.855h-3.026C53.561,49.367,51.511,50.294,49.949,51.905 M48.387,58.886
	c0-1.318,0.196-2.441,0.586-3.515v21.673c-0.391-1.073-0.586-2.196-0.586-3.515V58.886z M15.291,79.095
	c0.928-1.514,1.464-3.369,1.464-5.565V58.886c0-2.197-0.537-4.052-1.464-5.565c1.367-1.854,3.465-2.977,5.809-2.977h1.855
	c10.495,0,12.398,10.495,12.398,15.864c0,5.37-1.903,15.865-12.398,15.865H21.1C18.756,82.073,16.658,80.95,15.291,79.095
	 M8.311,82.073c-0.293,0-0.488,0.195-0.488,0.488c0,0.292,0.195,0.487,0.488,0.487c2.294,0,4.344-0.927,5.907-2.538v1.807
	c0,0.293,0.195,0.488,0.488,0.488s0.488-0.195,0.488-0.488V80.51c1.562,1.611,3.612,2.538,5.907,2.538h1.855
	c11.129,0,16.694-6.15,16.694-16.841c0-10.69-5.565-16.841-16.694-16.841H21.1c-2.294,0-4.345,0.927-5.907,2.539v-1.806
	c0-0.293-0.195-0.488-0.488-0.488s-0.488,0.195-0.488,0.488v1.806c-1.562-1.611-3.612-2.539-5.907-2.539
	c-0.293,0-0.488,0.195-0.488,0.488s0.195,0.488,0.488,0.488c2.343,0,4.442,1.123,5.809,2.977c-0.927,1.514-1.464,3.369-1.464,5.565
	V73.53c0,2.196,0.537,4.052,1.464,5.565C12.752,80.95,10.653,82.073,8.311,82.073 M13.631,58.886c0-1.318,0.196-2.441,0.586-3.515
	v21.673c-0.391-1.073-0.586-2.196-0.586-3.515V58.886z M15.779,58.886V73.53c0,1.318-0.195,2.441-0.585,3.515V55.371
	C15.584,56.445,15.779,57.567,15.779,58.886 M30.326,80.803c4.832-3.515,6.003-10.397,6.003-14.596
	c0-4.149-1.171-11.081-5.955-14.595c5.516,2.196,8.299,7.322,8.299,14.595C38.673,73.53,35.891,78.607,30.326,80.803 M37.013,66.208
	c0,3.173-0.293,5.126-1.66,8.348c-0.048,0.098-0.098,0.244-0.098,0.341c0,0.294,0.196,0.488,0.488,0.488
	c0.244,0,0.391-0.097,0.488-0.39c1.367-3.271,1.757-5.419,1.757-8.787s-0.391-5.516-1.757-8.786
	c-0.098-0.293-0.244-0.391-0.488-0.391c-0.292,0-0.488,0.195-0.488,0.488c0,0.097,0.049,0.244,0.098,0.341
	C36.72,61.082,37.013,63.035,37.013,66.208"/>
<path d="M265.506,40.159c0,0.293,0.195,0.488,0.488,0.488c0.195,0,0.293-0.049,0.439-0.244l3.368-5.321
	c0.049-0.098,0.098-0.196,0.098-0.342c0-0.292-0.195-0.488-0.488-0.488c-0.195,0-0.342,0.098-0.439,0.244l-3.368,5.321
	C265.555,39.915,265.506,40.012,265.506,40.159 M272.73,7.941h12.058l-1.172,2.148h-9.372c-1.611,0-2.978-0.098-4.687-0.586h13.424
	c0.293,0,0.488-0.195,0.488-0.488s-0.195-0.488-0.488-0.488h-13.766C270.29,8.137,271.413,7.941,272.73,7.941 M263.212,7.453
	c0,0.195,0.049,0.342,0.244,0.439c0.39,0.244,0.78,0.439,1.171,0.634h-0.439c-0.292,0-0.487,0.195-0.487,0.488
	s0.195,0.488,0.487,0.488h1.562c-1.66,1.562-2.538,3.612-2.538,5.906c0,0.293,0.195,0.488,0.488,0.488
	c0.292,0,0.487-0.195,0.487-0.488c0-2.294,1.074-4.393,2.93-5.76c2.88,1.221,4.734,1.416,7.127,1.416h8.835l-19.428,28.752
	c-0.049,0.098-0.098,0.195-0.098,0.341c0,0.293,0.195,0.488,0.487,0.488c0.195,0,0.343-0.146,0.488-0.341l14.205-21.04
	l-11.08,20.551c-0.049,0.098-0.098,0.195-0.098,0.341c0,0.293,0.194,0.488,0.488,0.488c0.194,0,0.341-0.097,0.487-0.341
	l17.476-32.511c0.05-0.098,0.098-0.195,0.098-0.342c0-0.293-0.194-0.488-0.488-0.488H272.73c-2.246,0-4.198,0.585-5.76,1.562
	c-0.83-0.342-1.758-0.83-2.831-1.415c-0.195-0.098-0.342-0.146-0.439-0.146C263.407,6.965,263.212,7.16,263.212,7.453
	 M241.637,40.159c0,0.293,0.194,0.488,0.487,0.488c0.196,0,0.293-0.049,0.44-0.244l3.367-5.321c0.049-0.098,0.098-0.196,0.098-0.342
	c0-0.292-0.195-0.488-0.487-0.488c-0.196,0-0.342,0.098-0.44,0.244l-3.368,5.321C241.685,39.915,241.637,40.012,241.637,40.159
	 M248.861,7.941h12.058l-1.172,2.148h-9.373c-1.61,0-2.978-0.098-4.686-0.586h13.424c0.293,0,0.487-0.195,0.487-0.488
	s-0.194-0.488-0.487-0.488h-13.767C246.42,8.137,247.543,7.941,248.861,7.941 M239.342,7.453c0,0.195,0.049,0.342,0.244,0.439
	c0.391,0.244,0.781,0.439,1.172,0.634h-0.439c-0.293,0-0.487,0.195-0.487,0.488s0.194,0.488,0.487,0.488h1.562
	c-1.66,1.562-2.539,3.612-2.539,5.906c0,0.293,0.195,0.488,0.489,0.488c0.292,0,0.487-0.195,0.487-0.488
	c0-2.294,1.074-4.393,2.929-5.76c2.881,1.221,4.735,1.416,7.127,1.416h8.835l-19.428,28.752c-0.049,0.098-0.098,0.195-0.098,0.341
	c0,0.293,0.195,0.488,0.488,0.488c0.195,0,0.342-0.146,0.488-0.341l14.205-21.04l-11.081,20.551
	c-0.049,0.098-0.098,0.195-0.098,0.341c0,0.293,0.195,0.488,0.488,0.488c0.195,0,0.342-0.097,0.488-0.341l17.476-32.511
	c0.049-0.098,0.098-0.195,0.098-0.342c0-0.293-0.195-0.488-0.488-0.488h-12.887c-2.246,0-4.198,0.585-5.761,1.562
	c-0.83-0.342-1.758-0.83-2.831-1.415c-0.195-0.098-0.342-0.146-0.438-0.146C239.537,6.965,239.342,7.16,239.342,7.453
	 M217.718,31.128c0,1.318-0.194,2.441-0.585,3.514V12.969c0.391,1.074,0.585,2.196,0.585,3.515V31.128z M217.133,9.503V7.697
	c0-0.293-0.196-0.488-0.488-0.488c-0.293,0-0.488,0.195-0.488,0.488v1.806c-1.562-1.611-3.612-2.538-5.907-2.538
	c-0.293,0-0.487,0.195-0.487,0.488s0.194,0.488,0.487,0.488c2.344,0,4.442,1.123,5.81,2.978c-0.928,1.513-1.465,3.368-1.465,5.565
	v14.645c0,2.197,0.537,4.051,1.465,5.565c-1.367,1.854-3.466,2.978-5.81,2.978c-0.293,0-0.487,0.195-0.487,0.488
	c0,0.293,0.194,0.488,0.487,0.488c2.295,0,4.345-0.927,5.907-2.538v1.806c0,0.293,0.195,0.488,0.488,0.488
	c0.292,0,0.488-0.195,0.488-0.488v-1.806c1.562,1.611,3.612,2.538,5.906,2.538h3.026c2.196,0,4.003-0.83,5.37-1.855
	c0.83-0.634,2.099-0.293,2.099,1.367c0,0.293,0.195,0.488,0.488,0.488c0.292,0,0.488-0.195,0.488-0.488
	c0-1.464-0.879-2.294-1.904-2.489c1.27-1.367,1.904-3.222,1.904-4.784c0-0.292-0.196-0.488-0.488-0.488
	c-0.293,0-0.488,0.195-0.488,0.488c0,3.271-3.026,6.786-7.469,6.786h-3.026c-2.344,0-4.442-1.123-5.81-2.978
	c0.929-1.514,1.465-3.368,1.465-5.565v-7.176h12.984c0.293,0,0.488-0.196,0.488-0.488c0-0.293-0.195-0.488-0.488-0.488h-12.984
	v-6.492c0-2.197-0.536-4.052-1.465-5.565c1.367-1.855,3.466-2.978,5.81-2.978h3.026c4.442,0,7.469,3.515,7.469,6.785
	c0,0.293,0.195,0.488,0.488,0.488c0.292,0,0.488-0.195,0.488-0.488c0-1.562-0.635-3.417-1.904-4.784
	c1.025-0.195,1.904-1.025,1.904-2.49c0-0.293-0.196-0.488-0.488-0.488c-0.293,0-0.488,0.195-0.488,0.488
	c0,1.66-1.269,2.001-2.099,1.367c-1.367-1.025-3.174-1.854-5.37-1.854h-3.026C220.745,6.965,218.694,7.893,217.133,9.503
	 M215.57,16.484c0-1.318,0.195-2.441,0.586-3.515v21.673c-0.391-1.073-0.586-2.196-0.586-3.514V16.484z M178.569,39.671
	c-0.293,0-0.488,0.195-0.488,0.488c0,0.293,0.195,0.488,0.488,0.488c2.295,0,4.345-0.927,5.907-2.538v1.806
	c0,0.293,0.194,0.488,0.487,0.488s0.488-0.195,0.488-0.488v-1.806c1.562,1.611,3.612,2.538,5.906,2.538
	c0.293,0,0.488-0.195,0.488-0.488c0-0.293-0.195-0.488-0.488-0.488c-2.343,0-4.442-1.123-5.809-2.978
	c0.928-1.514,1.465-3.368,1.465-5.565V16.484c0-2.197-0.537-4.052-1.465-5.565c1.366-1.855,3.466-2.978,5.809-2.978h2.588
	c2.88,0.146,6.394,3.417,6.394,7.811c0,4.54-3.66,7.81-6.59,7.81h-5.174c-0.293,0-0.488,0.195-0.488,0.488
	c0,0.098,0.049,0.195,0.098,0.293l5.272,7.419c4.442,6.151,8.933,8.884,14.498,8.884c0.292,0,0.488-0.195,0.488-0.488
	c0-0.293-0.196-0.488-0.488-0.488c-1.416,0-2.734-0.195-4.052-0.586l-10.397-14.547h1.024c5.712,0,10.008-3.319,10.008-8.786
	c0-5.468-4.296-8.787-10.008-8.787h-3.173c-2.294,0-4.344,0.927-5.906,2.538V7.697c0-0.293-0.195-0.488-0.488-0.488
	s-0.487,0.195-0.487,0.488v1.806c-1.562-1.611-3.612-2.538-5.907-2.538c-0.293,0-0.488,0.195-0.488,0.488s0.195,0.488,0.488,0.488
	c2.343,0,4.441,1.123,5.809,2.978c-0.927,1.513-1.464,3.368-1.464,5.565v14.645c0,2.197,0.537,4.051,1.464,5.565
	C183.011,38.548,180.912,39.671,178.569,39.671 M183.89,16.484c0-1.318,0.196-2.441,0.587-3.515v21.673
	c-0.391-1.073-0.587-2.196-0.587-3.514V16.484z M186.038,16.484v14.645c0,1.318-0.195,2.441-0.586,3.514V12.969
	C185.843,14.043,186.038,15.166,186.038,16.484 M189.455,24.538h2.929l9.86,13.913c-2.929-1.318-5.564-3.71-8.054-7.273
	L189.455,24.538z M197.461,23.221c2.099-1.465,3.856-4.15,3.856-7.469c0-3.271-1.758-6.004-3.856-7.469
	c3.562,0.928,6.102,3.564,6.102,7.469C203.562,19.657,201.023,22.293,197.461,23.221 M197.9,33.374l-5.663-7.908
	c-0.098-0.146-0.244-0.244-0.439-0.244c-0.293,0-0.488,0.195-0.488,0.488c0,0.098,0.049,0.244,0.195,0.439l5.613,7.811
	c0.099,0.146,0.294,0.244,0.44,0.244c0.292,0,0.488-0.195,0.488-0.488C198.047,33.618,197.997,33.52,197.9,33.374 M201.951,15.752
	c0,1.024-0.195,1.952-0.488,2.587c-0.049,0.098-0.098,0.244-0.098,0.342c0,0.293,0.195,0.488,0.488,0.488
	c0.195,0,0.342-0.048,0.439-0.244c0.439-1.025,0.635-2.148,0.635-3.172c0-1.025-0.195-2.148-0.635-3.173
	c-0.098-0.195-0.244-0.244-0.439-0.244c-0.293,0-0.488,0.195-0.488,0.488c0,0.098,0.049,0.244,0.098,0.342
	C201.756,13.799,201.951,14.727,201.951,15.752 M172.955,23.806c0-6.688-3.172-13.229-8.2-15.962
	c5.857,1.464,10.544,7.029,10.544,15.962s-4.687,14.498-10.544,15.962C169.783,37.035,172.955,30.494,172.955,23.806
	 M145.815,23.806c0-8.933,4.686-14.498,10.543-15.962c-5.027,2.733-8.2,9.275-8.2,15.962s3.173,13.229,8.2,15.962
	C150.501,38.304,145.815,32.739,145.815,23.806 M171.979,23.806c0,7.761-4.491,15.621-11.423,16.304
	c-6.932-0.683-11.423-8.542-11.423-16.304c0-7.762,4.491-15.621,11.423-16.304C167.488,8.185,171.979,16.044,171.979,23.806
	 M161.582,6.477h-2.051c-7.664,0-14.693,6.199-14.693,17.329s7.029,17.329,14.693,17.329h2.051c7.664,0,14.693-6.199,14.693-17.329
	S169.246,6.477,161.582,6.477 M173.639,23.806c0,3.173-0.293,5.125-1.659,8.347c-0.049,0.098-0.098,0.244-0.098,0.342
	c0,0.293,0.195,0.488,0.488,0.488c0.244,0,0.391-0.098,0.488-0.39c1.366-3.271,1.757-5.418,1.757-8.787s-0.391-5.516-1.757-8.787
	c-0.098-0.293-0.244-0.391-0.488-0.391c-0.293,0-0.488,0.195-0.488,0.488c0,0.098,0.049,0.244,0.098,0.342
	C173.346,18.681,173.639,20.633,173.639,23.806 M147.475,23.806c0-3.173,0.293-5.125,1.659-8.347
	c0.049-0.098,0.098-0.244,0.098-0.342c0-0.293-0.194-0.488-0.487-0.488c-0.245,0-0.392,0.098-0.488,0.391
	c-1.367,3.271-1.758,5.418-1.758,8.787s0.391,5.516,1.758,8.787c0.097,0.292,0.243,0.39,0.488,0.39c0.293,0,0.487-0.195,0.487-0.488
	c0-0.098-0.049-0.244-0.098-0.342C147.768,28.932,147.475,26.979,147.475,23.806 M128.535,7.453c6.297,0,9.91,3.808,11.276,8.25
	c0.098,0.342,0.244,0.439,0.488,0.439c0.292,0,0.488-0.195,0.488-0.488c0-0.097-0.049-0.244-0.098-0.439
	c-0.586-1.904-1.562-3.612-2.929-5.077h0.195c1.221,0,2.734-0.781,2.734-2.685c0-0.293-0.195-0.488-0.488-0.488
	c-0.292,0-0.488,0.195-0.488,0.488c0,0.977-0.732,1.708-2.147,1.708c-0.586,0-1.123-0.195-1.611-0.537
	c-1.611-1.123-4.1-2.148-7.419-2.148c-8.201,0-14.254,6.639-14.254,17.329c0,10.739,6.053,17.329,14.254,17.329
	c3.319,0,5.809-1.025,7.419-2.147c0.489-0.342,1.025-0.537,1.611-0.537c1.416,0,2.246,0.732,2.246,1.708
	c0,0.293,0.195,0.488,0.488,0.488c0.292,0,0.488-0.195,0.488-0.488c0-1.903-1.611-2.685-2.832-2.685h-0.195
	c1.367-1.464,2.343-3.173,2.929-5.077c0.049-0.195,0.098-0.342,0.098-0.439c0-0.293-0.195-0.488-0.488-0.488
	c-0.244,0-0.391,0.097-0.488,0.439c-1.367,4.442-4.979,8.25-11.276,8.25h-0.342c-4.051-0.293-9.616-6.443-9.616-16.353
	C118.577,15.459,123.263,7.453,128.535,7.453 M117.601,23.806c0,7.712,3.124,13.034,6.492,15.572
	c-5.321-1.953-8.835-7.615-8.835-15.572c0-7.859,3.466-13.522,8.738-15.523C120.334,11.163,117.601,17.216,117.601,23.806
	 M116.917,23.806c0-3.173,0.293-5.125,1.66-8.347c0.049-0.098,0.098-0.244,0.098-0.342c0-0.293-0.196-0.488-0.488-0.488
	c-0.244,0-0.391,0.146-0.488,0.391c-1.367,3.271-1.758,5.418-1.758,8.787s0.391,5.516,1.758,8.787
	c0.097,0.244,0.244,0.39,0.488,0.39c0.292,0,0.488-0.195,0.488-0.488c0-0.098-0.049-0.244-0.098-0.342
	C117.21,28.932,116.917,26.979,116.917,23.806"/>
</svg>
