<?xml version="1.0" encoding="utf-8"?>
<!-- Generator: Adobe Illustrator 25.4.1, SVG Export Plug-In . SVG Version: 6.00 Build 0)  -->
<svg version="1.1" id="Livello_1" xmlns="http://www.w3.org/2000/svg" xmlns:xlink="http://www.w3.org/1999/xlink" x="0px" y="0px"
	 viewBox="0 0 432.1 105.9" style="enable-background:new 0 0 432.1 105.9;" xml:space="preserve">
<style type="text/css">
	.st0{fill:#40B4F4;}
</style>
<path class="st0" d="M432.1,80.4c0-14.4-7.3-19.4-19.8-22.6c-6.9-1.8-12.5-3.1-18.3-4.1c-4.4-0.8-5-1.9-5-4.5c0-3.9,4.2-4.5,6.6-4.5
	c5,0,8.4,1.8,8.8,7.6l25.9-0.5c-1-16.9-14.3-23.7-36.1-23.7c-15.1,0-33.6,5.8-33.6,24.2c0,12.4,7.6,19.8,28.9,23.5
	c12.4,2.1,13.8,2.6,13.8,7.6c0,4.4-3.9,5.3-7.6,5.3c-5.5,0-9.4-3.7-9.7-9.6l-25.9,0.7c0.8,15.4,10.7,26.3,36.3,26.3
	C412.4,106,432.1,100.6,432.1,80.4 M358.1,104.7V29.6h-28.7v43.8c0.1,3-0.2,5.9-1,8.8c-1.3,3.6-4.1,6.9-8.1,6.9
	c-8.8,0-8.4-7.6-8.4-14.8V29.7h-28.7v47.7c0,15.6,8.4,28.5,27.4,28.5c6.3,0,12.8-0.8,19.5-5.5h0.4v4.2L358.1,104.7z M279.3,104.7
	V54.1c0-17.3-13.1-26.1-26.9-26.1c-13.4,0-20.3,4.7-24.8,8.1h-0.4c-3.4-4.4-11.3-8.1-18.6-8.1c-8.3-0.1-16.4,2.8-22.9,8.1h-0.3v-6.5
	h-28v75.1h28.9V60.1c-0.1-2.8,0.3-5.6,1.1-8.3c1.3-3.6,4.1-6.5,8.1-6.5c7.1,0,8.4,4.5,8.4,12.5v46.8h28.8V59
	c-0.6-5.5,2.6-13.6,9.1-13.6c8.1,0,8.8,7.6,8.8,12.4v46.8L279.3,104.7L279.3,104.7z M127.7,67.1c0,17.3-2.9,22-10.9,22
	s-10.9-4.7-10.9-22s2.9-22.2,10.9-22.2S127.7,49.7,127.7,67.1 M155.4,67.1c0-11.8-1.8-20.7-7.3-27.2c-7-8.3-17-11.8-31.3-11.8
	s-24.4,3.6-31.2,11.8c-5.5,6.5-7.3,15.4-7.3,27.2s1.8,20.6,7.3,27.1c7,8.3,17,11.8,31.3,11.8s24.3-3.6,31.3-11.8
	C153.7,87.6,155.5,78.9,155.4,67.1 M47.7,69.7c0,6.3-0.3,11-1.3,14.1c-0.9,3.1-3.9,5.2-7.1,5c-8.9,0-9.2-12.6-9.2-20.6v-2.1
	c0-7.9,0.3-20.7,9.2-20.7c3.3-0.1,6.2,2,7.1,5.2c1,3.1,1.3,7.8,1.3,14.1V69.7z M76,104.7V0H47.6v34.5h-0.2
	C45.3,31.4,36.9,28,28.9,28C2.8,28,0,51.7,0,67.1s2.6,39.1,28.9,39.1c8.3,0,16.5-4.1,18.5-7.3h0.2v5.8H76z"/>
</svg>
