<?xml version="1.0" encoding="utf-8"?>
<!-- Generator: Adobe Illustrator 25.4.1, SVG Export Plug-In . SVG Version: 6.00 Build 0)  -->
<svg version="1.1" id="Livello_1" xmlns="http://www.w3.org/2000/svg" xmlns:xlink="http://www.w3.org/1999/xlink" x="0px" y="0px"
	 viewBox="0 0 595.9 126.2" style="enable-background:new 0 0 595.9 126.2;" xml:space="preserve">
<style type="text/css">
	.st0{fill:#35535C;}
	.st1{fill:#060606;}
	.st2{fill:#060604;}
</style>
<g>
	<g>
		<path class="st0" d="M178.4,84.4h-13.2l-6,34.2h-11.4l6-34.2h-12.9l1.8-10.2h37.2L178.4,84.4z"/>
		<path class="st0" d="M225.3,74.2l-22.8,44.2h-12l-8.4-44.2h11.7l4.5,30l14.1-30L225.3,74.2L225.3,74.2z"/>
	</g>
	<g>
		<path class="st1" d="M162.5,32.7l-1.2,7.5h18.3l-1.8,9.6h-18.3l-3,16.8h-11.1l7.8-43.9h33l-1.8,9.9
			C184.4,32.7,162.5,32.7,162.5,32.7z"/>
		<path class="st1" d="M186.2,52.8c0-1.2,0-2.7,0.3-4.2l4.5-26.1h11.1l-4.5,26.1c-0.3,0.9-0.3,1.8-0.3,2.4c0,3.6,2.4,6,6.6,6
			c5.1,0,8.1-3,9-8.4l4.5-26.1h11.1l-4.8,27.6c-2.1,11.4-9,17.4-20.7,17.4C193.1,67.6,186.2,61.9,186.2,52.8z"/>
		<path class="st1" d="M231.3,47.7c0-14.4,9.6-25.8,24-25.8c12,0,19.8,7.8,19.8,19.8c0,14.4-9.6,25.8-24,25.8
			C239.1,67.6,231.3,59.8,231.3,47.7z M263.4,41.7c0-6-3.6-9.9-8.7-9.9c-7.5,0-12,7.5-12,15.6c0,6,3.6,9.9,8.7,9.9
			C258.9,57.3,263.4,49.8,263.4,41.7z"/>
		<path class="st1" d="M307.9,50.1l5.7,16.5h-11.7L297.1,51h-6.3l-2.7,15.6H277l7.8-43.9h19.8c8.1,0,13.8,5.1,13.8,12.3
			C318.4,42.6,314.2,48,307.9,50.1z M292.6,41.4h8.4c3.6,0,6-2.1,6-4.8c0-2.4-1.8-3.9-4.2-3.9h-8.4L292.6,41.4z"/>
		<path class="st1" d="M328.3,22.8h11.1l-7.8,43.9h-11.1L328.3,22.8z"/>
		<path class="st1" d="M340,59.5l7.5-7.2c2.4,3.3,7.2,5.1,12.6,5.1c4.5,0,7.5-1.5,7.5-3.9s-2.4-3.6-7.5-4.2
			c-10.5-1.5-15.3-6.3-15.3-13.5c0-8.7,7.2-14.1,18.9-14.1c7.2,0,14.1,2.4,18.3,6.9l-6.6,7.2c-2.7-2.7-6.9-4.2-11.7-4.2
			c-4.2,0-7.2,1.5-7.2,3.9c0,2.1,1.8,3.3,6.6,3.9c11.1,1.5,16.5,5.7,16.5,13.5c0,9-7.8,14.7-20.1,14.7
			C351.4,67.6,344.2,64.6,340,59.5z"/>
		<path class="st1" d="M409.7,59.2h-15.3l-3.6,7.5h-12.3l22.8-43.9h12.6l9,43.9h-11.7L409.7,59.2z M408.2,49.8L405.8,36l-6.9,13.8
			H408.2z"/>
		<path class="st1" d="M459.8,56.7l-1.8,9.9h-29.7l7.8-43.9h11.1l-6,33.9C441.2,56.7,459.8,56.7,459.8,56.7z"/>
		<path class="st1" d="M463.7,47.7c0-14.4,9.6-25.8,24-25.8c12,0,19.8,7.8,19.8,19.8c0,14.4-9.6,25.8-24,25.8
			C471.6,67.6,463.7,59.8,463.7,47.7z M496.2,41.7c0-6-3.6-9.9-8.7-9.9c-7.5,0-12,7.5-12,15.6c0,6,3.6,9.9,8.7,9.9
			C491.7,57.3,496.2,49.8,496.2,41.7z"/>
		<path class="st1" d="M555.4,22.8l-7.8,43.9h-12.3l-9.9-26.1l-4.5,26.1h-11.4l7.8-43.9h12.3l9.9,26.1l4.5-26.1
			C543.9,22.8,555.4,22.8,555.4,22.8z"/>
		<path class="st1" d="M572.2,32.7l-1.2,6.9h19.2l-1.5,9.3h-19.2l-1.2,7.5h21.6l-1.8,9.9h-32.7l7.8-43.9h32.7l-1.8,9.9h-21.9V32.7
			L572.2,32.7z"/>
	</g>
	<g>
		<g>
			<g>
				<g>
					<path class="st2" d="M63.1,0C28.3,0,0,28.2,0,63.1s28.2,63.1,63.1,63.1s63.1-28.2,63.1-63.1S97.9,0,63.1,0z M63.1,117.4
						c-30,0-54.4-24.3-54.4-54.4S33.1,8.7,63.1,8.7s54.4,24.3,54.4,54.4S93.1,117.4,63.1,117.4z"/>
				</g>
			</g>
			<path class="st2" d="M38.8,89.8l14.1-45.7l3.3-11.7h38.1l-7.8,11.7H68.8L62.5,66h15.9c-0.6,4.8-3.6,7.2-9.3,7.5h-9l-3,9.9
				c-3.3,9.3-9.3,13.8-18.6,13.8h-1.8L38.8,89.8z"/>
		</g>
		<g>
			<path class="st2" d="M135.2,8.1c0,5.1-3.9,9.3-9,9.3c-4.5,0-8.7-3-8.7-8.1s3.9-9.3,9-9.3C131,0,135.2,3,135.2,8.1z M133.1,8.1
				c0-3.9-3.3-6.3-6.6-6.3c-4.2,0-7.2,3.6-7.2,7.5s3.3,6.3,6.6,6.3C130.1,15.6,133.1,12,133.1,8.1z M130.4,6.6c0,1.5-0.9,2.7-2.4,3
				l1.2,3.6h-2.1l-0.9-3.6h-1.5l-0.6,3.6h-1.8l1.5-9.3h3.9C129.2,3.9,130.4,5.1,130.4,6.6z M128.3,6.6c0-0.6-0.3-0.9-1.2-0.9h-1.8
				L125,8.1h1.8C127.7,8.1,128.3,7.5,128.3,6.6z"/>
		</g>
	</g>
</g>
</svg>
