<?xml version="1.0" encoding="utf-8"?>
<!-- Generator: Adobe Illustrator 25.4.1, SVG Export Plug-In . SVG Version: 6.00 Build 0)  -->
<svg version="1.1" id="Livello_1" xmlns="http://www.w3.org/2000/svg" xmlns:xlink="http://www.w3.org/1999/xlink" x="0px" y="0px"
	 viewBox="0 0 596 152" style="enable-background:new 0 0 596 152;" xml:space="preserve">
<style type="text/css">
	.st0{fill:#020D85;}
</style>
<g>
	<path class="st0" d="M51.2,120.8c0-9.4,0.1-18.7,0.1-28.1c0-1.2,0.2-1.7,1.6-1.7c7.3,0.2,14.6-0.1,21.8,0.3
		c13.1,0.7,24.9,11.2,27,24.1c2.4,14.3-4.7,27.2-18,32.9c-3.6,1.5-7.3,2.1-11.2,2.1c-6.8,0-13.6-0.1-20.4-0.1
		c-1.1,0-1.2-0.4-1.2-1.3C51.1,139.7,51.2,130.2,51.2,120.8z M59.7,120.9c0,6.6,0,13.2-0.1,19.8c0,0.9,0.2,1.3,1.2,1.2
		c3.3,0,6.7,0,10,0c2.1,0,4.2,0,6.3-0.5c11.7-2.7,18.7-14.1,16-25.8c-1.9-8.2-9.8-15.4-18.5-15.9c-4.5-0.3-9-0.1-13.4-0.2
		c-1.2,0-1.5,0.3-1.5,1.5C59.8,107.7,59.8,114.3,59.7,120.9z"/>
	<path class="st0" d="M386.8,61.8c-2.6,0-5.2,0-7.7,0c-0.8,0-0.8-0.5-1-1c-1.4-4.8-2.8-9.7-4.1-14.6c-0.3-1.1-0.8-1.4-1.9-1.4
		c-7.1,0-14.3,0-21.4-0.1c-1.2,0-1.6,0.4-1.9,1.5c-1.3,4.8-2.8,9.6-4.1,14.4c-0.2,0.8-0.6,1.2-1.5,1.1c-2.4-0.1-4.8,0-7.4-0.1
		c1.4-5,2.8-9.9,4.3-14.7c4.2-14.3,8.4-28.6,12.5-43c0.3-1.2,0.8-1.7,2.1-1.6c1.9,0.1,3.8,0.1,5.8,0c0.9,0,1.1,0.1,0.8,1.1
		c-3.1,10.4-6.1,20.8-9.2,31.2c-0.4,1.3-0.1,1.6,1.2,1.5c5.5,0,10.9,0,16.4,0.1c1.4,0,1.4-0.4,1.1-1.6c-2.9-10.3-5.8-20.7-8.8-31.1
		c-0.3-1.1-0.2-1.5,1-1.4c2,0.1,3.9,0.1,5.9,0c0.9,0,1.3,0.2,1.5,1.1c5.3,19.1,10.7,38.1,16.1,57.2C386.7,61,386.7,61.3,386.8,61.8z
		"/>
	<path class="st0" d="M561.3,32.9c0-9.4,0.1-18.7,0.1-28.1c0-1.2,0.2-1.6,1.5-1.6c10.4,0.1,20.8,0.1,31.1,0.2c1,0,1.5,0.2,1.4,1.3
		c-0.1,2-0.1,3.9,0,5.9c0,1-0.3,1.3-1.3,1.3c-7.6-0.1-15.2-0.1-22.7-0.2c-1.3,0-1.5,0.4-1.5,1.5c0,4.8,0,9.5-0.1,14.3
		c0,1,0.3,1.2,1.2,1.2c6.2,0,12.4,0.1,18.6,0c1.1,0,1.6,0.2,1.5,1.4c-0.1,1.9-0.1,3.8,0,5.7c0.1,1.1-0.3,1.4-1.4,1.4
		c-6.2-0.1-12.3-0.1-18.5-0.1c-1.1,0-1.5,0.2-1.5,1.4c0.1,4.8,0,9.5-0.1,14.3c0,1.1,0.3,1.3,1.3,1.3c7.5,0,15,0.1,22.4,0
		c1.6,0,1.9,0.5,1.8,1.9c-0.1,1.9-0.1,3.7,0,5.6c0,0.8-0.2,1.1-1,1.1c-10.6-0.1-21.3-0.1-31.9-0.1c-1.1,0-1.1-0.5-1.1-1.3
		C561.2,51.8,561.3,42.4,561.3,32.9z"/>
	<path class="st0" d="M123.4,30.9c0-9.4,0.1-18.7,0.1-28.1c0-1.4,0.4-1.7,1.7-1.6c10.3,0.1,20.6,0.1,30.9,0.1c1.1,0,1.6,0.2,1.5,1.4
		c-0.1,2-0.1,3.9,0,5.9c0,1-0.3,1.2-1.2,1.2c-7.6-0.1-15.2-0.1-22.7-0.2c-1.2,0-1.6,0.3-1.6,1.5c0.1,4.7,0,9.4-0.1,14.1
		c0,1.1,0.2,1.4,1.4,1.4c6.1,0,12.2,0.1,18.3,0c1.2,0,1.8,0.2,1.6,1.6c-0.2,1.9-0.1,3.8,0,5.7c0,1-0.3,1.2-1.3,1.2
		c-6.2-0.1-12.4,0-18.6-0.1c-1.2,0-1.5,0.3-1.5,1.5c0,4.7,0,9.4-0.1,14.1c0,1.1,0.3,1.4,1.4,1.4c7.6,0,15.2,0.1,22.7,0.1
		c1.1,0,1.5,0.2,1.4,1.4c-0.1,2.1-0.1,4.1,0,6.2c0,0.7-0.2,1-1,1c-10.7-0.1-21.4-0.1-32-0.1c-1.1,0-1-0.5-1-1.3
		C123.3,49.9,123.3,40.4,123.4,30.9z"/>
	<path class="st0" d="M0.2,120.5c0-9.4,0.1-18.8,0.1-28.2c0-1.1,0.2-1.4,1.4-1.4C12.1,91,22.6,91,33,91c1.1,0,1.4,0.3,1.4,1.4
		c-0.1,1.9-0.2,3.7,0,5.6c0.1,1.4-0.5,1.6-1.7,1.5c-7.4-0.1-14.9-0.1-22.3-0.2c-1.3,0-1.6,0.4-1.6,1.6c0.1,4.7,0,9.4-0.1,14.1
		c0,1,0.3,1.3,1.3,1.3c6.2,0,12.4,0.1,18.6,0c1.1,0,1.5,0.2,1.4,1.4c-0.1,1.9-0.2,3.7,0,5.6c0.1,1.4-0.5,1.6-1.7,1.6
		c-6-0.1-12,0-18-0.1c-1.2,0-1.7,0.2-1.7,1.5c0.1,4.7,0,9.4-0.1,14.1c0,1.1,0.3,1.3,1.3,1.3c7.6,0,15.2,0.1,22.7,0.1
		c1.2,0,1.5,0.3,1.5,1.5c-0.1,2.1-0.1,4.1,0,6.2c0,0.7-0.2,0.9-0.9,0.9c-10.7-0.1-21.5-0.1-32.2-0.1c-1.2,0-0.9-0.7-0.9-1.4
		C0.1,139.4,0.1,129.9,0.2,120.5z"/>
	<path class="st0" d="M238.2,24.7c0-7.2,0.1-14.4,0.1-21.6c0-1.1,0.3-1.4,1.4-1.4c1.9,0.1,3.7,0.1,5.6,0c1.2-0.1,1.6,0.3,1.5,1.6
		c-0.1,13.8-0.1,27.5-0.3,41.3c-0.1,3.8,2.8,7.8,6.6,8.7c4,0.9,7.8-0.9,9.7-4.7c0.6-1.1,0.8-2.3,0.8-3.5c0-13.9,0.1-27.7,0.1-41.6
		c0-1.3,0.3-1.7,1.6-1.6c1.9,0.1,3.8,0.1,5.8,0c0.8,0,1.2,0.1,1.2,1.1c-0.1,14.4-0.1,28.7-0.3,43.1c-0.1,9.3-9.2,16.7-18.5,15.9
		c-8-0.7-15.8-8.2-15.5-17.4C238.4,37.9,238.2,31.3,238.2,24.7z"/>
	<path class="st0" d="M153.3,114.7c0,6.7,0,13.3-0.1,20c-0.1,8.1-5.5,14.8-13.4,16.6c-10.3,2.3-20.6-5.8-20.6-16.3
		c0-14.1,0.1-28.2,0.1-42.3c0-1.1,0.4-1.3,1.4-1.3c1.9,0.1,3.8,0.1,5.8,0c1.2-0.1,1.5,0.3,1.5,1.5c-0.1,10.3-0.1,20.7-0.2,31
		c0,3.6,0,7.3-0.1,10.9c0,4.6,3.8,8.4,8.5,8.4c4.6,0,8.5-3.8,8.6-8.3c0.1-13.8,0.1-27.6,0.2-41.4c0-1.9,0-1.9,1.9-1.8
		c1.7,0,3.4,0.1,5.2,0c1.1-0.1,1.4,0.3,1.4,1.4C153.3,100.2,153.3,107.4,153.3,114.7z"/>
	<path class="st0" d="M510.5,120.5c0-9.4,0.1-18.8,0.1-28.2c0-1.1,0.2-1.4,1.4-1.4c10.4,0.1,20.9,0.1,31.3,0.1
		c1.1,0,1.4,0.3,1.4,1.4c-0.1,1.9-0.2,3.7,0,5.6c0.1,1.4-0.5,1.6-1.7,1.5c-7.4-0.1-14.9-0.1-22.3-0.2c-1.3,0-1.6,0.4-1.6,1.6
		c0.1,4.7,0,9.4-0.1,14.1c0,1,0.3,1.3,1.3,1.3c6.2,0,12.4,0.1,18.6,0c1.1,0,1.5,0.2,1.4,1.4c-0.1,1.9-0.2,3.7,0,5.6
		c0.1,1.4-0.5,1.6-1.7,1.6c-6-0.1-12,0-18-0.1c-1.2,0-1.7,0.2-1.7,1.5c0.1,4.7,0,9.4-0.1,14.1c0,1.1,0.3,1.3,1.3,1.3
		c7.6,0,15.2,0.1,22.7,0.1c1.2,0,1.5,0.3,1.5,1.5c-0.1,2.1-0.1,4.1,0,6.2c0,0.7-0.2,0.9-0.9,0.9c-10.7-0.1-21.5-0.1-32.2-0.1
		c-1.2,0-0.9-0.7-0.9-1.4C510.4,139.4,510.5,129.9,510.5,120.5z"/>
	<path class="st0" d="M595.7,114.7c0,6.7,0,13.3-0.1,20c-0.1,8.1-5.5,14.8-13.4,16.6c-10.3,2.3-20.6-5.8-20.6-16.3
		c0-14.1,0.1-28.2,0.1-42.3c0-1.1,0.4-1.3,1.4-1.3c1.9,0.1,3.8,0.1,5.8,0c1.2-0.1,1.5,0.3,1.5,1.5c-0.1,10.3-0.1,20.7-0.2,31
		c0,3.6,0,7.3,0,10.9c0,4.6,3.8,8.4,8.5,8.4c4.6,0,8.5-3.8,8.6-8.3c0.1-13.8,0.1-27.6,0.2-41.4c0-1.9,0-1.9,1.9-1.8
		c1.7,0,3.4,0.1,5.2,0c1.1-0.1,1.4,0.3,1.4,1.4C595.7,100.2,595.7,107.4,595.7,114.7z"/>
	<path class="st0" d="M522.9,62.3c1.7-5.8,3.3-11.2,4.9-16.6c4-13.8,8-27.5,12-41.3c0.3-1,0.8-1.4,1.8-1.3c1.9,0.1,3.7,0.1,5.6,0
		c1.2,0,1.5,0.2,1.1,1.4c-1.9,6.2-3.6,12.4-5.5,18.6c-3.7,12.5-7.4,25.1-10.9,37.6c-0.4,1.4-1,1.7-2.3,1.7
		c-4.6-0.1-9.2-0.1-13.9-0.1c-1,0-1.4-0.2-1.7-1.2c-5.3-19-10.7-37.9-16.1-56.9c-0.3-1.1,0-1.3,1-1.3c2,0.1,3.9,0.1,5.9,0
		c1,0,1.3,0.3,1.6,1.2c3.6,13,7.3,26,11,39C519.3,49.4,521.1,55.7,522.9,62.3z"/>
	<path class="st0" d="M221.2,16.1c-9.2-9.7-24.7-8.5-32.6,0.3c-7.9,8.9-7.6,21.8,0.7,30.4c7.8,8,22.6,9.2,31.5-0.2
		c0.4,0.4,0.2,0.8,0.2,1.2c0,2.3-0.2,4.6,0,6.9c0.2,2.1-0.6,3-2.4,3.8c-16.3,7.6-35.1,1-42-15.7c-7.4-18,2.9-35.5,18.7-40.7
		c8.4-2.8,16.7-1.8,24.6,2.3c1,0.5,1.4,1.1,1.3,2.3C221.2,9.8,221.3,12.8,221.2,16.1z"/>
	<path class="st0" d="M72.3,30.7c0-9.4,0.1-18.8,0.1-28.2c0-1.2,0.3-1.6,1.5-1.5C79.6,1.2,85.3,0.9,91,1.3c7.5,0.5,14.3,7,15.2,14.5
		c1.1,9.1-4.6,17.1-13.6,19c-3.3,0.7-6.7,0.4-10,0.3c-1.4,0-1.9,0.2-1.9,1.8c0.1,7.4,0,14.9,0,22.3c0,1-0.2,1.4-1.3,1.3
		c-1.9-0.1-3.8-0.1-5.8,0c-1.2,0.1-1.6-0.2-1.5-1.5C72.3,49.5,72.3,40.1,72.3,30.7z M80.9,18c0,2.5,0,5,0,7.5c0,0.6,0,1,0.8,1
		c3-0.1,6.1,0.2,9.1-0.2c4-0.5,7.1-4.2,7.1-8.3s-3.1-7.7-7.1-8.3c-3-0.4-6.1-0.1-9.1-0.2c-0.9,0-0.8,0.5-0.8,1
		C81,13,80.9,15.5,80.9,18z"/>
	<path class="st0" d="M25.6,29.9c0-4.4,0.1-8.7,0-13.1c-0.1-8.9,7.5-16,15.2-16.7c10.2-1,18,6.8,18.8,15.1C59.8,17,59.8,17,58,17
		c-2,0-3.9,0-5.9,0c-0.7,0-1-0.2-1-1c-0.4-4.3-4.5-7.8-8.7-7.5c-4.7,0.3-8.2,3.8-8.2,8.4c-0.1,8.9-0.1,17.9-0.1,26.9
		c0,8.1-5.4,14.8-13.3,16.7C10.8,62.9,0.5,55.2,0.1,45c0-0.8,0.2-1.1,1-1.1c2.1,0.1,4.1,0.1,6.2,0c0.9,0,1.2,0.2,1.3,1.2
		c0.6,4.1,4.1,7.2,8.1,7.4c4.2,0.1,7.9-2.8,8.7-6.9c0.3-1.4,0.1-2.8,0.1-4.3C25.6,37.5,25.6,33.7,25.6,29.9z"/>
	<path class="st0" d="M467.8,32.5c0-6.5,0-13,0.1-19.6c0-1.4-0.4-1.7-1.7-1.7c-1.9,0.1-3.7,0-5.6,0c-0.9,0-1.2-0.2-1.2-1.1
		c0.1-2.1,0.1-4.2,0-6.3c0-0.9,0.3-1.1,1.1-1.1c7.8,0.1,15.6,0.1,23.3,0.1c0.8,0,1.1,0.2,1.1,1.1c-0.1,2.2-0.1,4.3,0,6.5
		c0,0.8-0.2,1-1,1c-2.1-0.1-4.2,0-6.3-0.1c-0.8,0-1.2,0.1-1.2,1.1c0,13.4-0.1,26.8-0.2,40.1c0,0.9,0.3,1.2,1.2,1.1c2,0,4,0,6.1,0
		c1,0,1.4,0.2,1.3,1.3c-0.1,2.1-0.1,4.1,0,6.2c0,0.8-0.1,1.1-1,1.1c-7.8-0.1-15.6-0.1-23.5-0.1c-0.7,0-1.1-0.1-1-0.9
		c0.1-2.2,0.1-4.4,0-6.6c0-0.8,0.3-1,1-1c1.9,0.1,3.8,0,5.8,0.1c1.3,0.1,1.7-0.2,1.7-1.6C467.7,45.5,467.8,39,467.8,32.5z"/>
	<path class="st0" d="M416.8,36.4c0-7.9,0-15.9,0.1-23.8c0-1.3-0.4-1.6-1.6-1.6c-4.7,0.1-9.3-0.1-14,0c-1.2,0-1.5-0.4-1.4-1.5
		c0.1-1.9,0.1-3.7,0-5.6c-0.1-1.1,0.3-1.5,1.4-1.5c9.6,0.1,19.2,0.1,28.8,0.2c3.6,0,7.3,0.1,10.9,0c1,0,1.5,0.2,1.4,1.3
		c-0.1,2-0.1,3.9,0,5.9c0,1-0.2,1.3-1.3,1.3c-4.8-0.1-9.5,0-14.3-0.1c-1.2,0-1.5,0.3-1.5,1.5c0,15.9-0.1,31.9-0.2,47.8
		c0,1.4-0.4,1.7-1.7,1.6c-1.8-0.1-3.6-0.1-5.5,0c-1.1,0.1-1.4-0.3-1.4-1.4C416.7,52.5,416.7,44.5,416.8,36.4z"/>
	<path class="st0" d="M289.2,31.6c0-9.4,0.1-18.7,0.1-28.1c0-1.2,0.3-1.6,1.5-1.5c1.8,0.1,3.6,0.1,5.5,0c1.3-0.1,1.5,0.4,1.5,1.6
		c-0.1,14.4-0.2,28.8-0.2,43.2c0,1.6,0.1,3.1,0,4.7c-0.1,1.1,0.3,1.4,1.4,1.4c7.5,0,15.1,0.1,22.6,0c1.3,0,1.7,0.3,1.6,1.6
		c-0.1,2-0.1,3.9,0,5.9c0,0.9-0.3,1.1-1.1,1.1c-10.6-0.1-21.3-0.1-31.9-0.1c-1.2,0-1.1-0.6-1.1-1.4
		C289.2,50.5,289.2,41.1,289.2,31.6z"/>
	<circle class="st0" cx="492.6" cy="145.8" r="4.5"/>
</g>
</svg>
