<?xml version="1.0" encoding="utf-8"?>
<!-- Generator: Adobe Illustrator 25.4.1, SVG Export Plug-In . SVG Version: 6.00 Build 0)  -->
<svg version="1.1" id="Livello_1" xmlns="http://www.w3.org/2000/svg" xmlns:xlink="http://www.w3.org/1999/xlink" x="0px" y="0px"
	 viewBox="0 0 515.3 333.7" style="enable-background:new 0 0 515.3 333.7;" xml:space="preserve">
<style type="text/css">
	.st0{fill:#E3001B;}
</style>
<g>
	<g id="Pages">
		<g id="Home_Media-partner-Copy-2" transform="translate(-92.000000, -5808.000000)">
			<g id="Group-3" transform="translate(0.000000, 5234.000000)">
				<g id="SDM_logo_standard_positivo" transform="translate(92.000000, 574.000000)">
					<path id="Shape" class="st0" d="M12.5,7.9c-0.4,0-0.8,0-1.2,0c0.1,0.5,0.2,1,0.2,1.5c0,0.2,0,0.4,0,0.6c0,0.3,0.1,0.6,0.3,0.8
						c0.2,0.2,0.5,0.3,0.8,0.3l0,0c3.6,0,5.6,1.4,5.9,4.4h3.9C21.9,10.2,17.8,7.9,12.5,7.9z M14.9,18l-3.1-0.6
						c-1.8-0.3-3-0.7-3.7-1.4c-0.6-0.6-1.4-0.9-2.2-0.9H5.8c-0.7,0-1.5-0.1-2.2-0.4c0.1,4,3.1,5.4,7.3,6.2l3.2,0.6
						c3.1,0.6,4.6,1.2,4.6,3.2c0,1.9-1.5,3.3-5.2,3.3s-6.1-1.5-6.4-4.5H3.2c0.4,5.3,4.6,7.7,10.3,7.7s9.1-2.4,9.1-6.8
						C22.5,20.1,19,18.8,14.9,18L14.9,18z"/>
					<path id="Shape_00000176758688970802794090000016854020045376675974_" class="st0" d="M27,8.5v3.9c0,0.3,0.1,0.6,0.4,0.8
						c0.2,0.2,0.5,0.3,0.8,0.3l0,0c0.9,0,1.8,0.2,2.6,0.6V8.4L27,8.5L27,8.5z M43.6,8.5V20c0,5.3-2.6,7.9-6.8,7.9
						c-3,0-4.9-1.3-5.6-3.7c-0.9,0.5-2,0.8-3,0.8l0,0c-0.2,0-0.4,0.1-0.6,0.3c-0.1,0.2-0.2,0.4-0.1,0.6c1.1,3.5,4.1,5.4,8.4,5.4
						c3.2,0,5.4-1.2,6.9-3.1c0.2-0.2,0.3-0.3,0.5-0.3s0.3,0.1,0.3,0.3v2.5h3.8V8.5H43.6z"/>
					<path id="Path" class="st0" d="M75.9,16.6c-0.7,0.4-1.4,0.8-2.2,1c-0.9,0.3-1.4,1.1-1.4,2l0,0c0,5.3-3.2,8.3-7.7,8.3
						s-7.7-3-7.7-8.3c0-4.7,2.5-7.5,6.1-8.2c0.5-0.1,1.1-0.1,1.6-0.1h0.1c1,0,2-0.6,2.4-1.6c0.3-0.5,0.6-1,1-1.5
						c-1-0.2-1.9-0.4-2.9-0.4c-0.8,0-1.6,0.1-2.4,0.2c-2,0.4-3.7,1.3-5,2.9c-0.1,0.2-0.3,0.3-0.5,0.3S57,11.1,57,10.9V8.4h-3.8v30.2
						h4V28.3c0-0.2,0.1-0.3,0.3-0.3s0.4,0.1,0.5,0.3c1.7,2.2,4.2,3.1,7.3,3.1c5.4,0,10.9-3.6,10.9-11.7
						C76.2,18.6,76.1,17.6,75.9,16.6z"/>
					<path id="Shape_00000023277653464091571200000007822858273382076808_" class="st0" d="M101.3,18.5c0-6.2-3.7-10.6-10.6-10.6
						c-6.8,0-11.1,4.5-11.1,11.7c0,2.4,0.4,4.5,1.3,6.3c0.5-0.5,1-0.8,1.6-1.1c0.9-0.4,1.3-1.3,1.1-2.2c-0.1-0.6-0.2-1.3-0.3-1.9
						h17.9L101.3,18.5C101.2,18.5,101.3,18.5,101.3,18.5z M83.5,17.5c0.6-4.2,3.6-6.3,7.2-6.3c4,0,6.5,2.2,6.7,6.3H83.5z M97.4,23.7
						c-0.5,2.1-2.5,3.9-5.5,4.2c-0.9,0.1-1.5,0.9-1.4,1.7c0,0.1,0,0.2,0,0.4c0,0.4-0.1,0.9-0.2,1.3c0.2,0,0.3,0,0.5,0
						c7,0,9.9-4.3,10.6-7.7L97.4,23.7L97.4,23.7z"/>
					<path id="Path_00000060742731202081305400000014640308538266541217_" class="st0" d="M116.1,8.5c-3,0-4.5,0.9-5.5,3
						c-0.1,0.2-0.2,0.3-0.4,0.3s-0.3-0.1-0.3-0.3v-3h-3.8v22.2h3.8V18.1c0-4.3,2-5.9,5.7-5.9h10.2V8.5H116.1z"/>
					<path id="Shape_00000142139177728031167010000012996477788468299169_" class="st0" d="M139.9,18l-3.2-0.6c-3-0.6-4.3-1.2-4.3-3
						s1.5-3.2,5.1-3.2s5.6,1.4,5.9,4.4h3.9c-0.4-5.4-4.6-7.7-9.8-7.7s-8.9,2.3-8.9,6.5c0,4.3,3,5.7,7.3,6.5l3.1,0.6
						c2.2,0.4,3.6,0.9,4.2,1.8c0.4,0.6,1,1,1.7,1.2c0.9,0.2,1.7,0.7,2.3,1.3c0.1-0.5,0.1-0.9,0.1-1.4C147.5,20.1,144,18.8,139.9,18z
						 M136.2,27.8c-2.4-0.5-3.9-2-4.2-4.2h-3.9c0.4,5.1,4.4,7.6,9.9,7.7c-0.1-0.4-0.2-0.9-0.2-1.3l0,0C137.8,29,137.1,28,136.2,27.8
						L136.2,27.8z"/>
					<path id="Shape_00000166640306529071697700000015018183135743799464_" class="st0" d="M161.5,7.9c-6.3,0-9.2,3.3-9.4,7.5h4
						c0.1-2,1.2-3.6,4.1-4c0.5-0.1,0.9-0.5,0.9-1l0,0C161,9.5,161.2,8.7,161.5,7.9L161.5,7.9z M170.7,14.3c-0.6,0.6-1.4,1.1-2.3,1.4
						c-0.7,0.2-1.3,0.9-1.3,1.7l0,0l-8.1,0.3c-5.5,0.2-8.1,2.6-8.1,6.4c0,4.3,3.2,7.1,8.7,7.1c2.9,0,5.2-0.9,6.8-3
						c0.2-0.2,0.3-0.3,0.4-0.3c0.1,0,0.1,0,0.2,0.1c0.1,0,0.1,0.1,0.1,0.2v2.5h3.7V16.4C170.9,15.7,170.8,15,170.7,14.3L170.7,14.3z
						 M167.2,20.9c0,4.7-2.8,7.1-7,7.1c-3.4,0-5.3-1.5-5.3-3.8c0-1.9,1.3-3.1,4.3-3.2l8.1-0.3v0.2C167.3,20.9,167.2,20.9,167.2,20.9
						z"/>
					<polygon id="Path_00000155867860832108245140000000219551917215412109_" class="st0" points="176.7,0 176.7,30.7 180.5,30.7 
						180.5,0 					"/>
					<path id="Path_00000045602664679836600030000005244530611919497911_" class="st0" d="M196.7,7.9c-1.9,0-3.8,0.4-5.5,1.2
						c0.2,0.2,0.4,0.3,0.6,0.5c0.1,0.1,0.3,0.3,0.4,0.4c0.8,1,2.1,1.5,3.4,1.4c0.3,0,0.7-0.1,1.1-0.1c4.5,0,7.7,3,7.7,8.3
						s-3.2,8.3-7.7,8.3c-4.1,0-7.3-2.6-7.6-7.5c0-0.7-0.6-1.2-1.2-1.2l0,0c-0.9,0-1.8-0.2-2.6-0.6c0,0.3,0,0.6,0,1
						c0,7.7,5.1,11.7,11.5,11.7s11.5-4,11.5-11.7C208.3,12,203.2,7.9,196.7,7.9z"/>
					<path id="Shape_00000182521838504325956340000008936555042513457049_" class="st0" d="M224.4,7.9c-3.2,0-5.5,1.1-6.9,3.1
						c-0.2,0.2-0.3,0.3-0.5,0.3s-0.3-0.1-0.3-0.3V8.5h-3.8v22.2h3.8V19.2c0-5.3,2.6-7.9,6.8-7.9c1.9,0,3.4,0.5,4.4,1.6
						c0.6,0.6,1.5,0.9,2.3,0.8c0.9-0.1,1.9,0,2.7,0.3C232.1,10,229,7.9,224.4,7.9z M231,25L231,25c-0.4,0-0.8,0.1-1,0.4
						s-0.4,0.6-0.4,1v4.3h3.8v-6.2C232.6,24.8,231.8,25,231,25L231,25z"/>
					<path id="Path_00000173839473595328753580000006579563362382303376_" class="st0" d="M255.7,23.7c-0.6,2.5-2.4,4.3-6.6,4.3
						c-4.1,0-7.2-2.3-7.4-7.3h17.9v-2.1c0-1.8-0.3-3.5-1-5.1l-0.1,0.1c-0.4,0.4-0.9,0.7-1.4,1c-0.9,0.5-1.5,1.5-1.4,2.5
						c0,0.1,0,0.3,0,0.4h-14c0.5-3.9,3.5-5.4,5.5-5.9c0.9-0.3,1.5-1.1,1.5-2l0,0c0-0.5,0.1-1.1,0.2-1.6c-6.8,0-11.1,4.5-11.1,11.7
						s3.9,11.7,11.2,11.7c7,0,9.9-4.3,10.6-7.7H255.7z"/>
					<path id="Path_00000004524096991718727670000004239337477098727566_" class="st0" d="M3.6,14.4c0,0.1,0,0.2,0,0.3
						c-2.5-1-3.9-3.6-3.4-6.2c0.4-2.6,2.7-4.6,5.3-4.7s5.1,1.6,5.8,4.1C6.7,8.3,3.6,10.5,3.6,14.4z"/>
					<path id="Path_00000117638399937188641610000013008016736910901431_" class="st0" d="M78,12.2c0,1.5-0.6,3-1.7,4
						c-0.1,0.1-0.3,0.3-0.4,0.4c-0.3-1.8-1.1-3.5-2.3-4.9c-1.4-1.7-3.3-2.9-5.4-3.4c1.6-1.7,4.1-2.2,6.2-1.3S78,9.9,78,12.2L78,12.2
						z"/>
					<path id="Path_00000158026978313518278180000006517286455241201296_" class="st0" d="M172.4,10.3c0,1.5-0.6,3-1.7,4l0,0
						c0-0.1,0-0.2-0.1-0.3c-0.8-3.8-3.6-6.1-8.9-6.1h-0.2c1.1-2.4,3.8-3.7,6.4-3.2C170.5,5.3,172.4,7.6,172.4,10.3L172.4,10.3z"/>
					<path id="Path_00000083792630816022926210000012556367028412485560_" class="st0" d="M260.2,9.5c0,1.5-0.6,2.9-1.6,3.9
						c-1.5-3.4-4.7-5.5-9.5-5.5l0,0c0.8-2.7,3.5-4.4,6.3-4C258.2,4.3,260.2,6.7,260.2,9.5L260.2,9.5z"/>
					<path id="Path_00000035505239537485175160000000816857219294679967_" class="st0" d="M191.3,9.1c-3.4,1.6-5.7,4.8-6,9.6
						c-1.9-1-3.1-3-3.1-5.1s1.2-4.1,3.2-5C187.3,7.6,189.5,7.8,191.3,9.1z"/>
					<path id="Path_00000166658809680885845510000017866949354298965395_" class="st0" d="M33.9,19.3c0,1.5-0.6,3-1.7,4
						c-0.3,0.3-0.7,0.6-1.1,0.8c-0.2-0.8-0.3-1.6-0.3-2.4v-7.5c0.5,0.3,1,0.6,1.4,1C33.3,16.3,33.9,17.8,33.9,19.3z"/>
					<path id="Path_00000109718640923071960580000004503879953484893335_" class="st0" d="M236.7,19.3c0,1.5-0.6,3-1.7,4
						c-0.5,0.5-1,0.9-1.7,1.2v-7.6c0-1-0.1-1.9-0.3-2.9C235.2,14.8,236.7,16.9,236.7,19.3z"/>
					<path id="Path_00000121240753772902823130000014183414717905793972_" class="st0" d="M90.3,31.3c-0.6,2.4-2.6,4.1-5,4.3
						c-2.4,0.2-4.7-1.1-5.7-3.3c-1-2.2-0.5-4.8,1.3-6.5C82.5,29.2,85.7,31.2,90.3,31.3z"/>
					<path id="Path_00000101814152910578453610000015631552172306836104_" class="st0" d="M149.2,30c0,2.9-2.2,5.3-5,5.6
						c-2.9,0.3-5.5-1.5-6.2-4.3c0.2,0,0.3,0,0.5,0c5.1,0,8.3-1.9,8.9-5.4l0.1,0.1C148.6,27,149.2,28.5,149.2,30L149.2,30z"/>
				</g>
			</g>
		</g>
	</g>
	<g id="_x31_fdLBv_00000077312146602042843590000004541876140016629422_">
		<g>
			<path d="M44,216.6c-4.4,4.9-9.7,6.9-15.6,7.1c-16.6,0.5-28.2-12.3-26.2-29c0.1-0.7,0.1-1.4,0.3-2.1c1.5-5,2.5-9.9,1.5-15.4
				c-1-5.6,3.8-10.9,9.3-12.6c5.6-1.8,11.8,0.1,15.2,5.1c1.2,1.8,2.6,2.7,4.7,3.1c4.1,0.8,7.5,2.9,10.3,6.1c1,1.2,1.7,1.3,2.1-0.4
				c0.1-0.6,0.4-1.1,0.5-1.7c1-3,4-4.3,6.9-3.1c1.4,0.6,1,1.8,1,2.8c0,12.5,0,24.9,0,37.4c0,4.1,0.3,8.3-0.6,12.4
				c-2.2,9.8-8.2,15.7-18,17.8c-7.3,1.5-14.4,1-21.2-2c-6-2.6-9.8-7.1-11.3-13.6c-0.5-2.3,0-3.5,2.5-3.3c0.7,0.1,1.4,0.1,2.1,0
				c3.4-0.3,5.6,0.2,7.4,4.1c2.9,6.2,9.3,6.9,15.4,6.3C40.1,234.9,44.6,228.6,44,216.6z M6.1,186c-1.6,2.3-2,5-2.4,7.6
				c-1.8,10.7,2.7,21,11.3,25.7c9.1,5,19.5,3.7,27.6-3.4c0.5-0.5,1-1,1.8-0.8c1,0.3,1.1,1.1,1.1,1.9c0.4,9.8-2.8,19.7-16.4,20.1
				c-7,0.2-13.5-1.3-16.5-8.9c-0.4-1.1-1.2-1.5-2.3-1.5c-1.5,0-3,0.1-4.5,0c-1.7-0.1-2.1,0.7-1.6,2.2c1,3.6,2.8,6.7,5.7,9.2
				c4.7,3.8,10.2,5.2,16,5.4c14.6,0.7,26.1-5.9,26.6-22.3c0.5-14.7,0.2-29.5,0.2-44.2c0-0.9,0.1-2-1.2-2s-2.9-0.8-3.7,0.9
				c-0.5,0.9-0.7,1.8-1,2.8c-1.2,3.5-2,3.7-4.5,1c-2.6-2.9-5.9-4.6-9.6-5.6c-1.6-0.4-2,0-1.9,1.7c0.2,2.8,1.3,4.3,4.1,5.3
				c7,2.5,11.2,9.3,10.9,17c-0.4,8.8-4.6,14.7-12.2,17c-12.4,3.7-23.2-4.8-22.7-18.1C11.2,192.5,10.6,188.7,6.1,186z M12.3,196.3
				c0.1,2.3-0.1,4.3,0.4,6.2c1.9,7.7,8.1,12.3,16.4,12.1c7.7-0.2,13.8-5.3,15.1-12.6c1.6-9.1-1.9-16.8-9.4-19.6
				c-3.1-1.2-5.2-2.5-5-6.2c0.1-1.5-0.5-2.9-2.6-2.8c-7.6,0.3-14.1,2.8-18.9,8.9c-1.1,1.4-1.3,2.6,0.2,3.8
				C11.8,188.8,13.1,192.3,12.3,196.3z M6.2,182.2c8.6-7.8,8.6-7.9,20.2-10.1c2.3-0.4,1.3-1.3,0.6-2.3c-3.5-4.5-10.6-5.8-15.6-2.9
				C6.1,170.1,3.9,176.2,6.2,182.2z"/>
			<path d="M210.7,290c-0.8,3-1.5,5.9-2.2,8.8c-2.4,10.2-4.9,20.4-7.1,30.6c-0.5,2.3-1.6,3.1-3.8,3c-3.5-0.2-6.9-0.1-10.4,0
				c-1.6,0-2.5-0.5-2.9-2.2c-3.7-15.4-7.5-30.7-11.2-46.1c-0.6-2.4,0.1-3.4,2.7-3.4c6.7-0.1,6.7-0.1,8.3,6.4
				c2.6,11,5.2,21.9,7.7,32.9c0.2,0.9,0.3,1.7,1.3,2.8c1.3-5.5,2.6-10.6,3.8-15.7c1.8-7.8,3.7-15.6,5.5-23.4
				c0.5-2.3,1.6-3.1,3.9-2.9c3.3,0.2,6.5,0.2,9.8,0c2.3-0.1,3.3,0.8,3.8,3.1c2.7,11.8,5.5,23.5,8.3,35.2c0.3,1.1,0.6,2.2,0.9,3.7
				c1.5-1.4,1.4-3,1.7-4.4c2.8-11.6,5.6-23.3,8.2-34.9c0.4-1.9,1.2-2.8,3.2-2.6c1.4,0.1,2.8,0,4.2,0c3,0.1,3.4,0.5,2.7,3.6
				c-3.7,15.2-7.4,30.3-11,45.5c-0.4,1.9-1.4,2.6-3.3,2.5c-3.4-0.1-6.7-0.2-10.1,0c-2.5,0.1-3.4-0.8-4-3.2
				c-2.7-12.2-5.7-24.4-8.6-36.7C211.8,291.8,212,290.7,210.7,290z M229.3,331c1.4,0,2.8-0.1,4.2,0c2.3,0.3,3.1-0.7,3.5-2.8
				c0.6-3.3,1.5-6.5,2.3-9.8c2.7-11.2,5.5-22.5,8.2-33.7c0.2-0.8,0.8-1.7-0.2-2.4c-2-1.5-6.8,0.2-7.4,2.5
				c-1.8,7.7-3.6,15.4-5.4,23.1c-1.1,4.7-2.3,9.4-3.4,14.1c-0.2,1-0.6,2-1.8,2c-1.3,0-1.6-1-1.9-2c-0.1-0.5-0.2-1-0.3-1.4
				c-2.9-12-5.8-24-8.5-36c-0.4-1.9-1.2-2.6-3.2-2.5c-3,0.1-5.9,0.1-8.9,0c-1.8-0.1-2.6,0.6-3,2.4c-1.4,6.5-3,12.9-4.6,19.3
				c-1.4,5.9-2.8,11.7-4.2,17.6c-0.3,1.1-0.4,2.5-1.9,2.6c-1.6,0.1-1.8-1.3-2.1-2.4c-0.1-0.4-0.2-0.8-0.3-1.1
				c-2.6-11.2-5.3-22.5-7.9-33.7c-1.2-4.9-1.2-4.8-6.3-4.6c-1.7,0.1-2.3,0.5-1.8,2.3c3.7,15,7.3,29.9,10.9,44.9
				c0.3,1.3,0.9,1.8,2.2,1.8c2.9-0.1,5.8-0.2,8.6,0.1c2.7,0.3,3.7-0.8,4.3-3.4c2.7-12.1,5.6-24.2,8.5-36.4c0.3-1.2,0.1-3.1,2.1-3
				c1.7,0.1,1.7,1.8,1.9,2.9c2.6,10.9,5.2,21.9,7.8,32.9C222.4,331,222.3,331,229.3,331z"/>
			<path d="M130.8,109c-5.8,0-11.7,0-17.5,0c-1.7,0-2.4,0.3-2.1,2.4c1.6,9.3,8.7,13.5,17.7,12.8c5.6-0.4,10.2-2.5,12-8.4
				c0.4-1.1,1.2-1.5,2.3-1.5c1.9,0,3.8,0.1,5.6,0c2.5-0.1,2.8,1.1,2.1,3.2c-2.6,7.9-8.2,12.7-16.1,14.7c-5.4,1.4-11,1.3-16.4-0.1
				c-9.8-2.6-16.2-10.2-17.2-21c-0.6-5.6-0.4-11.3,1.6-16.7c3.7-9.7,12-15.5,22.7-15.6c2.6,0,4.2-0.5,5.8-2.8
				c4.3-6.2,13-7.2,18.9-2.6c6,4.6,7.4,13.2,2.6,19c-1.9,2.3-2.4,4.3-1.8,7.2c0.5,2.2,0.1,4.5,0.2,6.8c0.1,2.1-0.8,2.8-2.8,2.7
				C142.7,109,136.8,109,130.8,109L130.8,109z M129.8,107.7L129.8,107.7c5.9,0,11.9,0,17.8,0c1.1,0,2.3,0.2,2.4-1.4
				c0.1-2.9,0.1-5.7-0.4-8.6c-0.1-0.7-0.3-1.7-1.5-1.1c-2,1-4.8,1-5.3,4c-0.2,1.3-1.4,1.2-2.4,1.2c-9.3,0-18.6,0-27.9,0
				c-2.3,0-2.8-1-2.2-2.9c1.8-6.1,5.4-10.5,11.8-12c1.4-0.3,2.9-0.4,4.4-0.6c3-0.5,1.7-3.1,2.2-4.8c0.4-1.4-0.7-1.3-1.6-1.4
				c-9.6-0.8-18.8,4.8-22.5,13.7c-2.5,6-2.8,12.3-1.7,18.6c1.5,8.9,6.2,15.3,15.1,18.1c4.9,1.5,10,1.7,15,0.8
				c7.7-1.4,13.5-5.4,16.4-12.9c0.3-0.8,1-1.7,0-2.4c-1.6-1.2-6.8,0.1-7.7,1.9c-1,2.2-2.5,4-4.6,5.3c-11.2,6.8-25.2,0.4-27.3-12.5
				c-0.3-2.2,0.2-3.1,2.5-3C118.2,107.7,124,107.7,129.8,107.7z M126.8,100.5L126.8,100.5c4,0,8.1,0,12.1,0c0.9,0,2.2,0.4,2.6-0.8
				c0.8-2.5,2.9-3.3,5.1-4c2-0.6,2.1-1.7,1.3-3.3c-3.2-6.7-8.4-10.5-15.6-11.8c-1.8-0.3-2.3,0.4-2.5,2c-0.6,4.8-0.7,4.8-5.5,5.3
				c-6,0.7-10,3.9-12.2,9.4c-1.1,2.9-0.9,3.3,2.2,3.3C118.5,100.5,122.7,100.5,126.8,100.5z M142.4,71.8c-3.9,0.2-7.3,1.6-9.9,4.6
				c-1.3,1.5-1.8,2.4,1,3c7.2,1.5,12.6,5.4,15.6,12.3c0.9,2.1,1.6,1.7,2.7,0.2c3-4,3.6-8.3,1.6-12.8
				C151.3,74.5,147.4,72.2,142.4,71.8z"/>
			<path d="M290.6,133c-5.6,0.1-10.7-0.8-15.3-3.5c-4.8-2.8-7.7-7-8.6-12.5c-0.4-2.1,0.3-3,2.4-2.8c1.1,0.1,2.2,0.1,3.3,0
				c2.7-0.3,4.5,0.2,5,3.4c0.3,2.1,2,3.6,3.9,4.6c5.4,2.8,11,3,16.6,0.8c2.4-0.9,3.7-2.8,3.7-5.5s-1.6-4.1-3.9-5
				c-3.9-1.5-8.1-1.9-12.1-2.7c-3.3-0.7-6.6-1.4-9.7-2.7c-2.1-0.9-4.4-2-5.4-4.1c-2.2-4.5-5.5-8.2-8.2-12.3
				c-3.8-5.8-1.5-13.9,4.3-17.8c6-4,14-2.8,18.3,3c1.5,2.1,3,2.8,5.5,2.9c10.9,0.3,18.2,5.7,20.4,14.8c0.8,3.4,0.5,3.8-3,3.8
				c-1,0-2-0.1-3,0c-2.3,0.2-3.7-0.3-4.5-2.9c-1.3-4.2-4.9-6.1-9.1-6.6c-3.1-0.4-5-1.5-4.9-5c0.1-2-0.9-2.9-3.2-2.5
				c-6.3,1.2-11.9,3.3-13.9,10.3c-1.3,4.3-0.4,5.7,4.1,5.9c2.5,0.1,4.8,0.8,7.1,1.9c4.3,2.1,9.2,2.3,13.8,3.3c2.7,0.6,5.4,1.2,8,2.2
				c6.1,2.4,9.3,6.7,9.4,12.7c0.1,6.5-3.1,11.6-8.9,14.2C298.8,132.6,294.7,133.1,290.6,133z M290.3,131.7c4.6,0,9.1-0.5,13.2-2.8
				c5-2.8,7.1-7.2,6.8-12.9c-0.3-5.2-3.1-8.6-7.7-10.6c-3.7-1.6-7.5-2.7-11.4-2.9c-6.7-0.5-12.4-4.7-19.1-4.7c-0.8,0-1.7-1-2.4,0.1
				c-0.5,0.9,0.2,1.7,0.6,2.5c2.6,4.6,7,6.2,11.7,7.3c4.9,1.1,9.9,1.9,14.8,3.2c4.4,1.1,6.2,3.3,6.1,6.8c-0.1,3.7-2.4,6.4-6.5,7.4
				c-4.4,1-8.8,1-13.2-0.4c-2.8-0.9-5.7-2.4-6.5-5.2c-1.2-4.1-4-3.8-7.1-3.7c-1.4,0-1.9,0.5-1.6,2c0.9,3.5,2.4,6.7,5.3,9
				C278.3,130.7,284.2,131.7,290.3,131.7z M267.4,94.6c0.3-5.8,2.5-10,7.2-12.7c2.5-1.4,5.2-2.4,8.1-2.7c2.6-0.3,2.4-1.3,1-2.9
				c-3.5-3.8-7.8-5.3-12.9-3.9c-5.1,1.4-8,5.1-8.8,10.1C261.2,87.3,263.1,91.2,267.4,94.6z M305.4,96c4.7,0,4.9-0.3,3.5-4.3
				c-2.5-7.3-12.4-12.9-20.2-11.6c-0.5,0.1-1,0-1.2,0.6c-0.8,1.9,1,5.3,3.2,5.6c4.6,0.7,8.7,2.5,10.6,7
				C302.4,95.6,303.5,96.4,305.4,96z"/>
			<path d="M114.7,306.4c0-4.4,0.6-8.7,2.5-12.7c0.6-1.2,0.5-2.1,0-3.3c-2.8-7.1-0.4-14.1,5.9-17.6c6.3-3.5,13.6-1.6,18.1,4.8
				c0.8,1.2,1.7,1.6,3.1,1.7c14.3,1.3,23.3,11.1,23.8,25.4c0.3,8.3-1.6,15.9-7.8,21.9c-11.6,11.2-33.4,8.7-41.8-5
				C115.6,317.1,114.6,311.9,114.7,306.4z M141.5,324.5c9.2,0,14.7-5,16.3-14.6s-2.8-18.4-10.8-20.7c-3.3-1-5.3-2.3-5.3-5.9
				c0-2.2-1.3-2.8-3.3-2.6c-6.1,0.5-11.5,2.8-15.9,7.1c-3.8,3.8-3.7,4.5,0.8,7.6c1.8,1.3,2.8,2.7,2,5c-0.4,1.1-0.5,2.3-0.6,3.5
				C123.8,316.3,130.4,324.9,141.5,324.5z M118.9,293.7c-4.9,8.3-3.6,22.7,2.8,30.3c6.6,7.9,19.5,10.7,30.2,6.6
				c9.8-3.8,15.3-12.9,14.9-24.6c-0.4-13.7-7.4-22.4-19.7-24.8c-1.2-0.2-2.9-0.9-3.6,0.1c-0.9,1.3-0.3,3,0.2,4.5
				c0.5,1.4,1.9,1.6,3.1,2c6.4,1.8,10.2,6,11.9,12.4c1,3.7,0.9,7.4,0.4,11.2c-1.2,8.1-7.4,13.9-15.6,14.6
				c-8.9,0.8-15.9-3.5-18.7-11.3c-1.6-4.6-1.8-9.3-0.7-14c0.3-1.3,0.5-2.5-0.8-3.5C121.8,296,120.3,294.8,118.9,293.7z M118.7,290.1
				c0.2-0.2,0.5-0.2,0.7-0.5c4.8-6.5,11.4-9.6,19.2-10.3c1.8-0.2,1.7-0.8,0.9-2c-3.2-4.9-10.8-6.3-16.2-3.2
				C118.4,277,115.4,284.1,118.7,290.1z"/>
			<path d="M418.5,226.6c-17.4,0-29.1-13.6-26.7-31c1.9-14,9.5-21.4,23.8-23.3c1.5-0.2,2.4-0.9,3.3-2.1c4.2-6.1,11.7-7.9,18-4.5
				c6.2,3.4,8.6,10.7,5.7,17.6c-0.5,1.2-0.3,2.2,0.2,3.3c3,7.1,3.3,14.4,1.3,21.8C440.9,219.7,431.1,226.6,418.5,226.6z
				 M401.9,199.8c0,0.2,0,0.8,0,1.4c0.3,9.2,6.1,15.7,14.7,16.4c9.6,0.8,16.3-4.3,18.1-13.6c0.5-2.5,0.7-5.2,0.1-7.7
				c-1.1-4.2-0.5-7.3,3.6-9.4c1.7-0.9,2-2.3,0.5-4.1c-4.4-5.4-9.9-8.3-16.7-9c-3.8-0.4-3.9-0.4-4.3,3.4c-0.2,2.2-1,3.9-3.3,4.3
				C406.5,183.1,401.5,190.3,401.9,199.8z M441.2,186.3c-1.4,1.2-2.3,2.2-3.4,2.8c-2.2,1.1-2.7,2.7-2,4.9c0.8,2.6,0.6,5.3,0.5,8
				c-0.6,9.6-6.8,15.9-16.3,16.9c-8.9,0.9-16.4-4.2-18.7-12.6c-0.9-3.2-1-6.4-0.7-9.7c0.8-8.2,5.1-13.5,12.8-16
				c0.6-0.2,1.2-0.3,1.7-0.6c2.2-1.2,1.7-3.6,1.6-5.3s-2.1-0.7-3.2-0.6c-3,0.3-5.8,1.3-8.4,2.7c-9.1,5-13.8,16.1-11.8,27.6
				c2,11.8,9,18.9,20.3,20.5c10.3,1.5,19.6-0.6,25.7-9.6C445.4,206.3,445.1,196.5,441.2,186.3z M430.2,165.5
				c-3.8-0.1-6.9,1.4-9.3,4.3c-0.5,0.6-1.3,1.1-0.9,2c0.4,0.7,1.2,0.6,1.9,0.6c7.2,0.7,13.3,3.6,17.8,9.3c1.3,1.6,1.8,1.3,2.4-0.4
				C444.7,173.6,438.6,165.4,430.2,165.5z"/>
			<path d="M229.4,133c-13.1,0-22.5-6.9-25.6-18.7c-3.5-13.3,1.1-26.3,11.5-32.2c11.2-6.3,29.7-4.7,37.4,8.9
				c0.6,1.1,1.5,1.6,2.7,2.1c5.5,2.2,8.8,7.1,8.8,12.8c0,5.6-3.3,10.4-8.6,12.7c-1.1,0.5-2.1,0.9-2.8,2
				C247.5,129.5,239.4,133,229.4,133z M213,106.5c0,0.3,0,1.5,0.1,2.7c0.7,6.1,3.4,11.1,9.3,13.4c6,2.4,12.2,2.3,17.4-1.9
				c3.1-2.4,6-3.5,9.8-2.5c1.7,0.4,3.1,0,3.7-2c2.2-6.9,2.3-13.8,0-20.7c-0.4-1.1-1-2.2-2.3-1.9c-5.4,1.2-9.6-0.9-13.5-4.2
				c-0.3-0.2-0.7-0.3-1.1-0.5C226.1,85.1,212.8,89.6,213,106.5z M204.1,106c0,6.5,1.5,12.6,5.9,17.6c6.8,7.7,15.6,9.1,25.2,7.6
				c6.1-0.9,11.1-3.9,14.9-8.9c1.7-2.2,1.5-2.5-1.3-2.9c-3-0.5-5.4,0.1-7.9,2.2c-7.5,6.2-20.1,4.7-25.7-3c-3.2-4.3-3.8-9.2-3.6-14.4
				c0.4-7.1,3-13,9.8-16s13.5-2.5,19.6,2.1c2.3,1.8,4.6,2.8,7.6,2.1c3.1-0.7,3.2-0.5,1.3-3.1c-6-8-17.9-11.4-28.8-8.2
				C210.2,84.4,204.1,93.3,204.1,106z M254.6,117.1c4.8-1.2,8.1-5.7,8.3-10.6c0.2-5.7-2.8-10.2-8.5-12.2
				C257,102,256.9,109.5,254.6,117.1z"/>
			<path d="M256.4,219.3c-3.5,4-7.8,6.4-13,7c-1.1,0.1-1.5,1.1-2.1,1.9c-4.8,6.5-12.7,8.1-19.1,3.8c-6.1-4.2-7.7-12.3-3.6-18.9
				c0.8-1.2,0.9-2.3,0.8-3.6c-0.9-11-0.2-21.9-0.4-32.9c-0.1-2.3,0.8-3.1,3.1-3.1c8.3,0.3,7-1.3,7,7c0.1,7.3-0.1,14.6,0.1,22
				c0.1,3.4-1.1,5.6-4.3,6.9c-3.9,1.6-4.1,2.9-2.2,6.6c3,5.8,10.5,9.7,17.1,9.1c1.8-0.1,2.2-1.2,2.2-2.6c0-3.5,1.6-5.2,5.1-6
				c6.1-1.5,9.6-7.3,9.7-15.7c0.1-8.1,0.1-16.2,0-24.3c0-2.5,0.8-3.2,3.2-3.2c6.7,0.1,6.7,0,6.7,6.8c0,13.8-0.1,27.7,0,41.5
				c0,2.5-0.7,3.2-3.2,3.2C257.4,225,257.4,225.1,256.4,219.3z M265.2,199.6L265.2,199.6c0-7.1-0.1-14.2,0.1-21.3
				c0.1-3-1.3-3.3-3.7-3.3c-2.5,0-3.7,0.4-3.7,3.4c0.1,8.7,0.4,17.4-0.2,26.1c-0.5,7.3-4.5,12.1-11.5,14.1c-0.3,0.1-0.6,0.1-0.9,0.2
				c-2.5,1.1-2.3,3.6-1.9,5.4c0.4,1.7,2.3,0.5,3.5,0.2c2.9-0.8,5.3-2.5,7.4-4.7c0.8-0.8,1.4-2.3,2.8-1.6c1.4,0.6,1,2.1,0.9,3.2
				c-0.3,3,1.7,2.7,3.6,2.8c2,0,3.6,0,3.6-2.9C265.1,213.8,265.2,206.7,265.2,199.6z M221.1,210c0.8-0.5,1.5-1,2.3-1.3
				c3.5-1.1,4.5-3.5,4.4-7c-0.2-7.9-0.2-15.8,0-23.7c0.1-3.4-1.8-2.9-3.9-3c-2.2-0.1-3.7,0-3.6,3c0.2,9.2,0.1,18.4,0.1,27.6
				C220.3,207,220.3,208.5,221.1,210z M220,213.2c-2.9,4.9-3.2,9.1-1,13.4c2.4,4.6,6.5,6.8,11.7,6.5c4.2-0.3,7.4-2.3,9.9-6.3
				C231,226.4,223.5,223.3,220,213.2z"/>
			<path d="M67.8,286.9c7.6-8.2,16.1-9,25.3-6.1c7.6,2.3,12.2,9.3,12.4,18.4c0.2,10.1,0,20.2,0.1,30.3c0,2.1-0.6,3-2.9,3
				c-8.6-0.2-7.2,1-7.3-7.2c-0.1-7.7,0-15.4,0-23.1c0-8.6-3.8-13.2-11.1-13.6c-9.5-0.5-15.2,4-16.1,12.7c-0.9,9.3-0.3,18.6-0.4,27.9
				c0,2.6-0.7,3.4-3.3,3.3c-7.8-0.2-6.6,0.9-6.6-6.6c-0.1-20.2,0-40.3-0.1-60.5c0-3,0.8-3.9,3.8-3.8c6.1,0.2,6.1,0,6.1,6.1
				C67.8,273.7,67.8,279.9,67.8,286.9z M59.2,297c0,10.4,0,20.8,0,31.2c0,0.9-0.4,2.4,0.7,2.6c1.8,0.3,3.8,0.5,5.6,0
				c1.6-0.5,0.9-2.4,0.9-3.7c0.2-8.4-0.3-16.8,0.3-25.2c0.8-9.7,7-15.1,16.8-14.8c8.6,0.3,13.1,5.6,13.1,15.6c0,7.8,0,15.6,0,23.5
				c0,5.3-1.2,4.9,5.1,4.9c1.6,0,2.3-0.5,2.3-2.2c-0.1-10.1,0.1-20.2-0.1-30.3c-0.1-5.9-2.2-11-7.2-14.6c-6-4.3-20.6-5.4-27,2.8
				c-0.6,0.8-1.2,1.7-2.4,1.2c-1.1-0.4-0.8-1.5-0.8-2.3c-0.1-6.6-0.2-13.3-0.1-19.9c0.1-2.8-1.2-3-3.4-2.9c-2,0.1-4.1-0.5-4,3
				C59.4,276.2,59.2,286.6,59.2,297z"/>
			<path d="M54.5,85.8c8.5-7.5,18.1-9.1,26.9-5c7.1,3.3,10.2,9.3,10.5,16.6c0.3,10.6,0.1,21.2,0.1,31.8c0,2-0.9,2.6-2.7,2.5
				c-8.7-0.2-7.1,1.1-7.2-6.9c-0.1-7.5,0-15,0-22.6c0-9.4-4-14.3-11.9-14.5c-9.6-0.3-15.3,4.8-15.6,14.3c-0.3,8.7-0.2,17.4,0,26.1
				c0,2.7-0.8,3.6-3.5,3.6c-7.7-0.2-6.6,0.8-6.6-6.6c0-20.1,0-40.2,0-60.3c0-4.1,0-4.2,4-4.1c6.9,0.1,6.1-1,6.1,6.2
				C54.5,73,54.5,79.1,54.5,85.8z M45.7,96.3c0,9.9,0,19.8,0,29.7c0,4.4,0,4.4,4.5,4.3c0.2,0,0.4,0,0.6,0c1.9,0.2,2.4-0.7,2.3-2.4
				c-0.1-4.3-0.1-8.5,0-12.8c0.1-5.4-0.5-10.9,0.5-16.3c1.6-8.3,7.9-13,16.8-12.4c8,0.5,12.4,5,12.7,13.8c0.4,9,0.3,18,0.1,27
				c0,2.9,1.3,3.2,3.6,3.1c2.1-0.1,3.8,0.2,3.7-3c-0.2-9.9-0.1-19.8-0.1-29.7c0-2.8-0.7-5.5-1.9-8c-5.2-11-22.8-13.4-31.6-4.4
				c-0.8,0.8-1.4,2.6-2.9,2c-1.7-0.7-0.9-2.4-1-3.7c-0.1-6-0.2-12.1,0-18.1c0.1-3.2-1.3-3.4-3.9-3.4c-2.8-0.1-3.8,0.6-3.7,3.6
				C45.8,75.9,45.7,86.1,45.7,96.3z"/>
			<path d="M464.7,179.3c2-1.7,3.6-3.5,5.8-4.7c11.6-6,24.8-1.6,30.3,10.1c0.6,1.3,1.5,1.7,2.7,1.9c6.6,1.3,11.5,6.6,11.8,13
				c0.3,6-4.1,11.9-10.6,13.7c-2.1,0.6-2.7,1.5-2.6,3.4c0.1,1.2,0,2.4,0,3.6c0.1,5.7-0.1,4.7-4.8,4.7c-5.6,0-5.2,0.8-5.2-5.2
				c0-1.2,0-2.4,0-3.6c0.2-3.4,2.3-5.2,5.5-4.3c2.7,0.7,3.3-0.1,3.2-2.7c-0.1-5.8,0-11.7-0.1-17.5c0-4-0.4-4.2-4-3.1
				c-2.7,0.9-4.9,0.2-6.5-2.1c-3.8-5.5-9.2-6-15-4.9c-5.4,1-8.6,4.5-9.9,9.8c-0.6,2.5-0.9,5-0.9,7.6c0,7.7-0.1,15.4,0,23.1
				c0,2.2-0.7,2.8-2.9,2.9c-7,0-7,0.1-7-7c0-13.7,0.1-27.5,0-41.2c0-2.4,0.6-3.6,3.1-3.2c0.1,0,0.2,0,0.3,0
				C463.8,173.6,463.8,173.6,464.7,179.3z M455.9,199c0,7.2,0,14.4,0,21.7c0,0.9-0.4,2.3,0.7,2.7c1.8,0.7,3.7,0.7,5.5,0.1
				c1.6-0.5,1-2.2,1-3.4c0.2-8.5-0.4-17,0.4-25.5c0.6-6.5,3.4-11.9,10.2-13.9c6.1-1.8,14.3-1.1,18,5.3c0.1,0.3,0.3,0.5,0.6,0.7
				c1.3,1.2,5.4,1.2,6.9-0.2c1.4-1.4-0.1-2.8-0.7-4c-5.3-10.5-23.1-12.4-31.6-3.4c-0.8,0.8-1.4,2.3-2.8,1.7c-1.4-0.5-1.1-2-1-3.1
				c0.3-3.6-2.2-2.6-4.1-2.8c-2.3-0.2-3.1,0.5-3.1,3C456,185,455.9,192,455.9,199z M502.1,200.1c0,3.6,0,6.9,0,10.1
				c0,1.8,0.8,2.2,2.4,1.9c5.1-1.1,9.5-6.8,9.3-12.3c-0.2-5.8-4.8-11.1-10.2-11.9c-1.3-0.2-2.1-0.1-1.9,1.5
				C502.4,193.1,502,196.8,502.1,200.1z M500.8,218.8c0-4.9-0.9-6-4.5-5.8c-1.4,0.1-2.7,0.9-2.7,2.2c0,2.7-1.4,6,0.7,8.1
				c1.1,1.2,3.8,0.7,5.7,0.1c1.5-0.5,0.6-2.3,0.8-3.4C500.9,219.6,500.8,219.2,500.8,218.8z"/>
			<path d="M27.3,333.7c-7.7-0.2-15-1.6-20.2-8.1c-2-2.4-3-5.3-3.4-8.4c-0.2-1.6,0.2-2.5,2-2.3c0.9,0.1,1.8,0.1,2.7,0
				c3.1-0.4,5.5,0,6.3,3.8c0.4,2,2.2,3.5,4.2,4.4c5.1,2.4,10.3,2.5,15.6,0.7c2.7-0.9,4.3-2.8,4.3-5.8c0-2.8-1.8-4.2-4.2-5.1
				c-4.6-1.6-9.5-2-14.2-3.1c-2.2-0.5-4.4-1.1-6.5-1.9c-5.9-2.2-9-6.6-9.2-12.9c-0.2-5.9,3.1-11.2,8.9-13.5c8-3.2,16.1-3.3,24,0
				c6,2.5,9.5,7.2,10.6,13.6c0.3,2-0.1,3.1-2.4,2.8c-0.7-0.1-1.4-0.1-2.1,0c-3.4,0.5-5.9-0.2-6.4-4.2c-0.2-1.6-1.5-2.8-2.9-3.6
				c-5.4-2.9-11-3.1-16.5-0.5c-2.2,1-3.1,2.9-3,5.3s1.6,3.6,3.5,4.3c4.5,1.7,9.2,2.1,13.9,3.1c2.5,0.5,5,1.2,7.4,2.1
				c5.6,2.3,9.1,6.1,9.2,12.5c0.1,6.6-2.7,11.4-8.6,14.3C36.1,333.2,31.8,333.9,27.3,333.7z M29.6,332.3c2.8,0.1,7.7-0.6,12-3.4
				c4.5-3,6.1-7.3,5.8-12.5c-0.3-5-3-8.2-7.4-10.2c-1.6-0.7-3.3-1.3-5-1.7c-5.3-1.2-10.6-2.2-15.9-3.5c-3.9-1-5.6-3.1-5.7-6.2
				c-0.1-3.2,1.9-5.8,5.4-7c3.3-1.1,6.8-1.2,10.3-0.7c4.9,0.7,8.7,2.8,10.1,7.9c0.4,1.3,1,1.8,2.3,1.7c1.2,0,2.4-0.1,3.6,0
				c1.6,0.1,2.1-0.5,1.7-2.1c-0.8-3.7-2.5-6.9-5.5-9.2c-7.1-5.5-21.1-6.3-28.8-1.7c-4.6,2.8-6.7,6.9-6.4,12.2
				c0.3,5.5,3.4,9.1,8.5,11c2.7,1,5.5,1.7,8.3,2.2c4.2,0.8,8.4,1.2,12.4,2.8c3.3,1.3,5.1,3.5,5,6.3c-0.1,3.3-1.8,5.6-4.9,6.8
				c-5.8,2.2-11.6,1.9-17.3-0.7c-1.9-0.9-3.8-2.3-4.3-4.3c-0.9-4.1-3.8-3.7-6.8-3.6c-1.7,0-2.1,0.7-1.7,2.2c0.8,3,2,5.8,4.3,8
				C14.6,331.2,20.8,332.3,29.6,332.3z"/>
			<path d="M312.8,219.9c-8.5,7.6-19.6,8.9-28.7,3.8c-5.7-3.3-8.6-9.4-7.6-16.4c0.9-6.3,5-9.9,10.9-11.5c6.9-1.9,14.1-1.3,21.2-1.8
				c4.5-0.3,4.6-0.2,4.1-4.8c-0.4-3.2-2-5.6-5-6.8c-4.6-1.9-9.3-1.8-13.9,0.2c-2.5,1.1-4.1,3.1-4.6,5.8c-0.3,1.8-1.1,2.3-2.7,2.3
				c-1.1-0.1-2.2,0-3.3,0c-4.8,0-5.1-0.4-3.8-5.1c1.5-5.2,4.7-8.9,9.7-10.9c7.4-3,15.1-3.1,22.6-0.4c6.5,2.4,10,7.4,10.6,14.1
				c0.9,11.5,0.3,23.1,0.4,34.7c0,1.6-0.7,2.4-2.3,2.2c-0.6-0.1-1.2,0-1.8,0C313.4,225.1,313.4,225.1,312.8,219.9z M321.3,204.9
				L321.3,204.9c0.1-4.1,0-8.1,0.1-12.2c0.1-10.3-4.3-16.6-13.4-18.6c-5.2-1.1-10.5-1-15.6,0.4c-6.1,1.8-10.4,5.6-11.8,12
				c-0.2,0.7-0.5,1.6,0,2c1.8,1.1,3.8,0.3,5.8,0.5c1.3,0.1,1.6-0.9,1.9-1.9c0.9-3.2,3-5.3,6.1-6.4c4.2-1.5,8.5-1.6,12.8-0.2
				c4.1,1.3,6.3,4.2,6.9,8.4c0.8,6,0.7,6.1-5.4,6.2c-1.6,0-3.2,0-4.7,0.1c-5.5,0.6-11.1-0.1-16.5,1.6c-10.3,3.2-13.3,15.6-5.6,23.2
				c6.2,6.1,22.4,7.4,29-0.5c0.7-0.8,1.3-2,2.6-1.6c1.4,0.5,1.1,1.8,1,2.8c-0.2,3.3,2,2.7,3.9,2.8c2.4,0.2,3.1-0.9,3-3.1
				C321.2,215.4,321.3,210.2,321.3,204.9z"/>
			<path d="M135.5,219.7c-7.6,7.9-16.5,8.3-25.8,5.2c-8.2-2.7-12.4-10.8-10.3-19.2c1.2-4.8,4.3-7.7,8.6-9.4c3.1-1.2,6.3-1.7,9.6-1.9
				c5.2-0.2,10.5-0.5,15.7-0.6c1.9,0,2.4-0.8,2.3-2.5c-0.2-6.1-3.6-9.7-9.7-10.2c-2.6-0.2-5.2-0.2-7.6,0.6c-3.2,1-5.7,2.8-6.3,6.4
				c-0.3,1.8-1.1,2.5-3,2.4c-1.8-0.1-3.6,0-5.3,0c-1.9,0-2.4-0.9-2.1-2.6c1.1-6.7,4.7-11.4,11.1-13.8c5.8-2.2,11.8-2.4,17.8-1.1
				c9.6,2.1,14.3,7.6,14.7,18.1c0.4,10.6,0.1,21.2,0.1,31.8c0,1.8-0.8,2.5-2.5,2.3c-0.7-0.1-1.4,0-2.1,0
				C135.8,225,135.8,225,135.5,219.7z M143.9,206.1c0-4.9,0.1-9.9,0-14.8c-0.3-9.5-4.7-15.1-13.4-17.1c-5.7-1.3-11.4-1.1-17,0.9
				s-9.4,5.8-10.4,11.8c-0.1,0.6-0.7,1.6,0.1,1.9c2,0.7,4.1,0.3,6.2,0.2c1.4-0.1,1.2-1.4,1.5-2.3c1.1-3.2,3.3-5.1,6.4-6.1
				c4.2-1.3,8.3-1.4,12.5,0c3.7,1.2,5.7,3.8,6.6,7.4c1.5,6.5,1,7-5.6,7.3c-7,0.3-14.1-0.2-20.9,1.8c-7.6,2.2-11.2,8.7-9.3,16.4
				c0.7,3,2.2,5.4,4.6,7.4c7.2,6.2,21.7,5.7,27.9-0.8c0.8-0.9,1.4-2.5,3-1.8c1.4,0.6,0.9,2.1,0.9,3.2c-0.1,3.3,2.4,2.1,4,2.3
				c1.8,0.2,3-0.1,3-2.5C143.8,216.2,143.9,211.2,143.9,206.1z"/>
			<path d="M197.1,179.9c0-7.6,0-14.5,0-21.4c0-4.1,0-4.1,4.1-4.2c5.9-0.1,6-0.1,6,5.8c0,20.5-0.1,41,0.1,61.5c0,3-1,4-3.7,3.5
				c-0.1,0-0.2,0-0.3,0c-5.5,0-5.5,0-6-5.4c-0.8-0.4-1.1,0.3-1.4,0.7c-7.5,7.1-16.2,7.8-25.4,4.6c-9-3.2-13.9-10.1-15.6-19.3
				c-1.1-5.9-0.7-11.8,1.4-17.5C162.5,170.2,186.5,167.5,197.1,179.9z M205.8,189.7c0-10.4-0.1-20.8,0.1-31.2c0.1-4-2.6-2.7-4.6-3
				c-2.5-0.3-3,0.8-2.9,3.1c0.2,6.6,0.1,13.2,0.1,19.9c0,0.9,0.2,2.1-1.1,2.5c-1,0.3-1.7-0.5-2.2-1.2c-7.5-9.4-27.6-8.6-35.2,3.6
				c-4.3,7-5.4,14.6-3.8,22.5c1.8,8.4,6.2,15.1,14.7,17.9c8.9,2.9,17.4,2.2,24.4-5c0.6-0.6,1.2-1.5,2.2-1.1c1.2,0.4,1.2,1.6,1.1,2.5
				c-0.6,3.8,1.8,3.5,4.3,3.6c3.2,0.2,2.8-1.8,2.8-3.9C205.8,209.9,205.8,199.8,205.8,189.7z"/>
			<path d="M326.9,104.9c0-4.2-0.2-8.3,0.1-12.5c0.2-2.9-0.9-3.6-3.6-3.4c-1.9,0.2-3.8,0-5.6,0.1c-1.7,0.1-2.6-0.4-2.5-2.3
				c0.1-7.8-0.9-6.6,6.2-6.7c6.4-0.1,5.3,0.4,5.4-5.3c0-0.3,0-0.6,0-0.9c0.2-8.6-1.8-7.1,7.7-7.2c1.6,0,2.3,0.6,2.3,2.2
				c0,2.7,0.2,5.4,0,8c-0.2,2.8,0.9,3.4,3.4,3.3c2.9-0.2,5.7,0,8.6,0c1.9,0,2.6,0.8,2.6,2.7c0,7.6,0.4,6-6.1,6.3
				c-2.7,0.1-6.2-1.3-8,0.7c-1.6,1.7-0.4,5.1-0.4,7.8c-0.1,7.3,0.1,14.6-0.1,22c0,2.3,0.5,3.2,3,3.1c3.1-0.2,6.1,0,9.2-0.1
				c1.6,0,2.4,0.6,2.4,2.3c0,8.2,0.5,6.8-6.1,6.8c-2.2,0-4.4,0-6.5-0.3c-7.8-1.1-11.6-5.5-11.9-13.4
				C326.8,113.6,326.9,109.3,326.9,104.9L326.9,104.9z M335.7,105.7c0-5,0.1-10.1,0-15.1c0-2.1,0.7-2.9,2.7-2.8
				c2.8,0.1,5.6-0.2,8.3,0.1c2.7,0.2,3.6-0.7,3.5-3.4c-0.1-2.2-0.6-3.4-3-3.1c-0.9,0.1-1.8,0-2.7,0c-2.7-0.1-6.3,1.2-8.1-0.5
				c-2-1.8-0.6-5.4-0.7-8.2c-0.1-4.9,0-4.8-4.9-4.7c-2,0-2.6,0.8-2.5,2.7c0.1,2.8,0,5.5,0,8.3c0,1.8-0.7,2.5-2.4,2.5
				c-2.4-0.1-4.7,0-7.1,0c-2-0.1-2.4,1.1-2.1,2.7c0.3,1.4-1.2,3.9,2.1,3.8c1.8-0.1,3.6,0,5.3,0c4.1,0,4.1,0,4.1,4
				c0,8.7-0.1,17.4,0,26.1c0.1,7.6,4.4,11.9,11.9,12.3c2.6,0.1,5.1,0,7.7,0.1c2.7,0.1,2-1.8,2.1-3.2c0.1-1.6,0.4-3.3-2.2-3.1
				c-2.7,0.1-5.3,0-8,0c-3.8,0-4.1-0.3-4.1-4C335.6,115.2,335.7,110.5,335.7,105.7z"/>
			<path d="M349.6,199.5c0,4.6,0.1,9.1,0,13.7c-0.1,2.2,0.8,3,2.9,2.9c3-0.1,5.9,0,8.9,0c1.8,0,2.6,0.7,2.6,2.6
				c-0.2,7.8,0.8,6.2-6.2,6.4c-1.9,0-3.8,0-5.6-0.1c-7.2-0.4-11.7-4.5-12.3-11.6c-0.8-8.8-0.2-17.6-0.3-26.4c-0.1-4.2,0-4.2-4.2-4.2
				c-0.4,0-0.8,0-1.2,0c-6.5,0-7.1-0.8-6.1-7.4c0.2-1.3,0.8-1.7,1.9-1.7c0.9,0,1.8,0,2.7,0c6.9,0,6.9,0,6.9-7.1c0-1.3,0-2.6,0-3.9
				c-0.1-1.8,0.5-2.7,2.6-2.7c9.1,0.2,7.4-1.1,7.5,7.2c0.1,6.4,0,6.4,6.3,6.4c0.6,0,1.2,0,1.8,0c6.8,0,6.8,0,6.3,6.8
				c-0.1,1.7-0.8,2.3-2.4,2.3c-3.2,0-6.3,0.1-9.5,0c-1.9-0.1-2.8,0.6-2.6,2.5c0,0.1,0,0.2,0,0.3
				C349.6,190.2,349.6,194.8,349.6,199.5z M340.9,197.6c0,4.4-0.1,8.7,0,13.1c0.1,7.1,3.1,11.4,8.9,12.6c3.4,0.7,6.9,0.4,10.4,0.5
				c2.9,0.1,2.4-1.9,2.5-3.7c0.1-2-0.6-2.9-2.7-2.8c-2.9,0.1-5.7,0-8.6,0c-2.3,0.1-3.2-1-3.2-3.2c0-10.1,0.1-20.2,0-30.3
				c0-2,0.8-2.6,2.6-2.5c3,0.1,5.9-0.1,8.9,0.1c2.5,0.2,3-1,2.9-3.2c-0.1-2-0.1-3.5-2.8-3.3c-3.1,0.2-6.1,0-9.2,0.1
				c-1.8,0-2.5-0.6-2.5-2.4c0.1-3-0.1-5.9,0-8.9c0.1-1.7-0.6-2.4-2.2-2.2c-0.9,0.1-1.8,0.1-2.7,0c-2-0.2-2.6,0.7-2.5,2.6
				c0.1,2.8-0.1,5.5,0.1,8.3c0.1,2.1-0.7,2.8-2.7,2.7c-2.1-0.1-4.2,0.1-6.2-0.1c-2.6-0.2-2.6,1.3-2.6,3.1c0.1,1.7-0.3,3.5,2.4,3.3
				c2-0.2,4,0.1,5.9-0.1c2.5-0.2,3.2,0.9,3.2,3.3C340.8,188.9,340.9,193.3,340.9,197.6z"/>
			<path d="M21.7,106c0,4.3,0.2,8.5-0.1,12.8c-0.1,2.9,0.6,4.2,3.8,3.9c2.7-0.3,5.5,0,8.3-0.1c1.8-0.1,2.4,0.7,2.4,2.5
				c-0.1,7.8,0.8,6.5-6.3,6.6c-1.4,0-2.8,0-4.2,0c-9.1-0.4-13.8-5.1-14-14.2c-0.2-8.3-0.2-16.6,0-24.9c0.1-2.8-1-3.7-3.6-3.5
				c-2,0.2-4,0-5.9,0c-0.9,0-2,0.1-2-1.2c-0.1-2.2-0.1-4.4,0-6.5c0.1-1.4,1.3-1.3,2.3-1.3c2.3,0,4.6-0.1,6.8,0
				c1.8,0,2.5-0.7,2.4-2.5c-0.1-2.8,0-5.5,0-8.3c0-1.8,0.6-2.7,2.6-2.6c8.9,0.2,7.4-1.3,7.5,7.2c0.1,7-1.1,6.2,6.3,6.3
				c0.6,0,1.2,0,1.8,0c7.2,0.1,6.2-1.1,6.3,6.6c0,1.8-0.7,2.5-2.5,2.4c-2.6-0.1-5.1,0-7.7,0c-4.3,0-4.3,0-4.3,4.1
				C21.7,97.5,21.7,101.7,21.7,106z M13,104.3L13,104.3c0,4.5-0.1,9.1,0,13.6c0.2,7.8,4.5,12,12.2,12.3c2.3,0.1,4.6-0.1,6.8,0.1
				c2.8,0.3,2.7-1.4,2.7-3.3c0-1.9,0-3.3-2.6-3.1c-3,0.2-5.9,0-8.9,0c-1.9,0-2.9-0.8-2.9-2.9c0-10.3,0-20.6,0-30.8
				c0-1.8,0.8-2.4,2.5-2.4c2.9,0,5.7-0.2,8.6,0c2.8,0.2,3.5-0.8,3.4-3.5c-0.1-2.3-0.7-3.3-3.1-3c-1.3,0.1-2.6,0-3.9,0
				c-7.5,0-7.5,0-7.5-7.4c0-0.5,0-1,0-1.5c0-4.9,0-4.8-5-4.6c-1.7,0.1-2.5,0.6-2.4,2.4c0.1,2.7-0.1,5.3,0.1,8
				c0.1,2.2-0.5,3.3-2.9,3.1c-2.1-0.2-4.1,0-6.2-0.1c-3-0.1-2.2,2.1-2.3,3.7c-0.1,1.7,0.1,2.9,2.3,2.7c2.3-0.2,4.5,0,6.8,0
				c1.7,0,2.4,0.7,2.4,2.5C12.9,95,13,99.6,13,104.3z"/>
			<path d="M76.7,180.2c4.1-5.8,11.9-8.9,18-6.5c3.2,1.3,0.8,4.9,1.3,7.5c0.3,1.5-0.7,2.1-2.2,2.1c-2,0-4,0-5.9,0
				c-7.7,0.1-11.3,3.6-11.4,11.2c-0.1,9-0.1,18,0,27c0,2.7-0.7,3.6-3.5,3.6c-6.7-0.2-6.7,0-6.7-6.8c0-13.6,0-27.1,0-40.7
				c0-4,0-4,4.1-4C75.9,173.6,75.9,173.6,76.7,180.2z M67.6,199c0,7.2,0.2,14.4-0.1,21.7c-0.1,3.3,1.7,3.1,3.9,3.1
				c2.4,0.1,3.8-0.2,3.7-3.3c-0.2-8.8-0.2-17.6,0-26.4c0.1-7.5,4.6-12,12.1-12.2c1.9-0.1,3.8,0,5.6,0c0.9,0,1.6-0.1,1.9-1.3
				c1-4.6,0-5.9-4.7-5.8c-1.5,0-3,0.1-4.4,0.3c-2.7,0.4-4.8,1.7-6.5,3.8c-0.9,1.1-1,3.7-3,3.1c-2.1-0.6-1-2.9-1-4.4
				c0-2.1-0.7-2.9-2.8-2.7c-0.6,0.1-1.2,0.1-1.8,0c-2.3-0.3-3.1,0.5-3.1,3C67.7,185,67.6,192,67.6,199z"/>
			<path d="M187.4,96.3c0-10.7,0.1-21.3-0.1-32c0-2.9,0.9-3.7,3.7-3.7c6.4,0.2,6.4,0,6.4,6.4c0,20.2,0,40.3,0,60.5
				c0,4.1,0,4.2-4.1,4.1c-6.7,0-6,0.8-6-6C187.4,115.9,187.4,106.1,187.4,96.3L187.4,96.3z M188.8,96.2c0,9.8,0,19.6,0,29.4
				c0,5.2-0.9,4.6,4.7,4.8c2.1,0.1,2.7-0.6,2.7-2.7c-0.1-20.9-0.1-41.8,0-62.6c0-3.2-1.8-2.8-3.8-2.8s-3.8-0.4-3.8,2.8
				C188.9,75.4,188.8,85.8,188.8,96.2z"/>
			<path d="M372.4,199.3c0-7.6,0.1-15.2,0-22.8c0-2.2,0.6-2.9,2.9-2.9c7.1,0,7.1-0.1,7.1,7c0,13.8-0.1,27.5,0.1,41.2
				c0,2.7-0.8,3.4-3.4,3.3c-6.6-0.2-6.6-0.1-6.6-6.7C372.5,212,372.5,205.7,372.4,199.3C372.5,199.3,372.5,199.3,372.4,199.3z
				 M381,199.4c0-7-0.1-14.1,0.1-21.1c0.1-2.6-0.7-3.5-3.4-3.4c-2.4,0.1-4.1,0-4.1,3.3c0.1,14.1,0.2,28.3,0.1,42.4
				c0,3.2,1.8,3.1,4,3.1c2.3,0.1,3.4-0.4,3.4-3.1C380.9,213.6,381,206.5,381,199.4z"/>
			<path d="M372.5,160.8c0.1-7.4-1.3-6.3,6.5-6.6c2.8-0.1,3.7,0.9,3.4,3.6c-0.2,2.2-0.1,4.5,0,6.8c0.1,2.1-0.8,2.9-2.8,2.7
				c-0.2,0-0.4,0-0.6,0C372.5,167.3,372.5,167.3,372.5,160.8z M381,160.8L381,160.8c0-1.2,0-2.4,0-3.5c0-0.9-0.3-1.6-1.3-1.6
				c-1.6-0.1-3.5-0.6-4.7,0.1c-2.7,1.5-0.9,4.4-1.2,6.7c-0.2,1.2-0.7,2.9,1.3,3.4c4.3,1.2,5.9,0,5.9-4.4
				C381,161.2,381,161,381,160.8z"/>
			<path d="M297.6,219c-2.9,0-5.7-0.4-8.3-1.8c-3.4-1.9-4.9-5.3-4.2-9c0.6-3.3,2.9-5.4,6.8-6c3.1-0.4,6.3-0.5,9.4-0.7
				c3.2-0.2,6.5-0.3,9.7-0.5c2.2-0.2,3.2,0.4,3,2.9C313.7,213.3,307.5,219,297.6,219z M297.7,217.6c0.9,0,1.8,0.1,2.7,0
				c7.2-0.7,12.5-6.4,12.4-13.1c0-1.3-0.2-2.2-1.8-2c-6.4,0.6-12.8,0.1-19.2,1.2c-3,0.5-5.2,2.3-5.5,5.4c-0.3,3,0.9,5.4,3.6,6.9
				C292.3,217.3,294.9,217.8,297.7,217.6z"/>
			<path d="M120.3,219c-2.7,0.1-5.3-0.4-7.8-1.5c-3.6-1.7-5.4-5.3-4.8-9.3c0.5-3.1,3-5.4,6.8-6c6.6-1,13.4-0.6,20.1-1.2
				c2.2-0.2,2.3,1.1,2.2,2.8C136,213.6,130.1,219,120.3,219z M120,217.7c9.2,0,14.4-4.5,15.3-13c0.2-1.4,0.1-2.4-1.7-2.2
				c-6.3,0.6-12.6,0.1-18.9,1.1c-2.9,0.5-5.3,1.7-5.8,5c-0.5,3.5,0.9,6.2,4.1,7.8C115.4,217.4,117.9,217.8,120,217.7z"/>
			<path d="M198.8,199.5c0.1,13.4-8.9,21.2-22.1,18.9c-3.9-0.7-7-2.6-9.5-5.6c-5.7-6.7-5.7-20.3,0-26.9c4.7-5.5,12.6-7.6,20-5.1
				c7.3,2.4,10.6,8.1,11.6,15.4C198.9,197.3,198.8,198.4,198.8,199.5z M197.6,199.2c0-0.7-0.1-2.2-0.2-3.7
				c-1.1-8.3-6.4-13.4-14.9-14.3c-7.8-0.8-14.5,3.2-17,10.5c-1.8,5.3-1.7,10.7,0.3,16c1.8,4.8,5.4,8,10.5,9.2
				C188.4,219.8,197.3,212.8,197.6,199.2z"/>
		</g>
	</g>
</g>
</svg>
